<svg width="24" height="24" viewBox="0 0 24 24" fill="none" xmlns="http://www.w3.org/2000/svg">
<g id="account dollar | Dollars, Pesos, Reais, D&#195;&#179;lares, Currency, Coin, Moneda, Divisa, Money, Dinero, account,  cuenta">
<path id="Vector" fill-rule="evenodd" clip-rule="evenodd" d="M12 2C17.5142 2 22 6.48584 22 12C22 17.5142 17.5142 22 12 22C6.48584 22 2 17.5142 2 12C2 6.48584 6.48584 2 12 2ZM12 3C7.0376 3 3 7.0376 3 12C3 16.9624 7.0376 21 12 21C16.9624 21 21 16.9624 21 12C21 7.0376 16.9624 3 12 3ZM12.093 5.35147C12.0507 5.1181 11.8467 4.94141 11.6011 4.94141C11.3247 4.94141 11.1011 5.16504 11.1011 5.44141V7.03223L10.9069 7.06067C9.43875 7.30686 8.44092 8.19403 8.44092 9.35205C8.44092 10.794 9.72682 11.5104 11.1181 12.0529L11.4827 12.1908L12.5888 12.59L12.9484 12.7263L13.2902 12.866C14.1181 13.2211 14.7275 13.6259 14.7275 14.2148C14.7275 15.3112 13.4499 15.6176 12.5147 15.6949L12.2582 15.7113L12.0287 15.718L11.6797 15.7146C10.7158 15.6818 10.0414 15.4611 9.62669 15.2666L9.44085 15.1725L9.29747 15.0888L9.19571 15.0213L9.04278 14.9033C8.84386 14.7746 8.5752 14.8024 8.40723 14.9829C8.21875 15.1846 8.22949 15.501 8.43115 15.6895L8.49393 15.7431L8.59218 15.818L8.73627 15.916C9.12665 16.1663 9.89849 16.5496 11.1011 16.6764V18.2554L11.1091 18.3453C11.1514 18.5787 11.3554 18.7554 11.6011 18.7554C11.8774 18.7554 12.1011 18.5317 12.1011 18.2554V16.7098L12.3408 16.7015C14.4664 16.5965 15.7275 15.6878 15.7275 14.2148C15.7275 13.0527 14.7896 12.4168 13.6312 11.9253L13.2778 11.7817L12.9155 11.6446L12.1379 11.3644L11.7059 11.2052L11.3048 11.0488C10.15 10.5813 9.44092 10.1171 9.44092 9.35205C9.44092 8.46729 10.6304 7.98975 11.75 7.98975C12.5558 7.98975 13.3339 8.21618 13.8661 8.41726L14.1307 8.52291L14.3386 8.61444L14.549 8.71686L14.6419 8.75772C14.867 8.83128 15.1196 8.73676 15.2368 8.52148C15.3687 8.2793 15.2793 7.97607 15.0376 7.84375L14.8134 7.73283L14.5211 7.60386L14.2703 7.50383L13.9801 7.39927L13.6551 7.29592C13.2008 7.16148 12.6662 7.04557 12.1011 7.00946V5.44141L12.093 5.35147Z" fill="#191D21"/>
</g>
</svg>
