<svg width="18" height="18" viewBox="0 0 18 18" fill="none" xmlns="http://www.w3.org/2000/svg">
<path fillRule="evenodd" clipRule="evenodd" d="M14.8259 1.00876C14.7906 0.814388 14.6205 0.666992 14.4159 0.666992L14.341 0.673705C14.1467 0.708985 13.9993 0.879109 13.9993 1.08366L13.9985 3.16699H11.9159L11.841 3.17371C11.6467 3.20899 11.4993 3.37911 11.4993 3.58366L11.506 3.65856C11.5413 3.85293 11.7114 4.00033 11.9159 4.00033H13.9985L13.9993 6.08366L14.006 6.15856C14.0413 6.35293 14.2114 6.50033 14.4159 6.50033L14.4908 6.49361C14.6852 6.45833 14.8326 6.28821 14.8326 6.08366L14.8318 4.00033H16.9159L16.9908 3.99361C17.1852 3.95833 17.3326 3.78821 17.3326 3.58366L17.3259 3.50876C17.2906 3.31439 17.1205 3.16699 16.9159 3.16699H14.8318L14.8326 1.08366L14.8259 1.00876ZM11.0595 6.35644C11.2388 4.61378 9.61246 3.16699 7.7461 3.16699C5.82587 3.16699 4.16296 4.69962 4.45982 6.52794L4.81657 9.50249L4.84486 9.66259C5.13148 11.0858 6.27533 12.0278 7.7461 12.0278C9.2722 12.0278 10.4494 11.0138 10.6772 9.51544L11.0389 6.51094L11.0595 6.35644ZM11.0635 12.6405C13.2116 12.6405 14.8327 13.757 14.8327 15.298V15.9047C14.8327 16.6855 14.243 17.3338 13.4951 17.3338L2.00352 17.3313C1.25587 17.3313 0.666016 16.684 0.666016 15.9038V15.2963C0.666016 13.7959 2.41214 12.6405 4.43268 12.6405C4.61173 12.6405 4.81172 12.6581 5.04691 12.6915L5.33606 12.7373L5.98972 12.8568C6.20434 12.8944 6.42025 12.9407 6.63761 12.9954L7.06788 13.1143L7.21816 13.1597C7.459 13.2312 7.60462 13.2605 7.74852 13.2605C7.78236 13.2605 7.82081 13.2576 7.86541 13.2516L8.0192 13.2239L8.21914 13.1759C8.25683 13.1661 8.29682 13.1554 8.33932 13.1438L8.91218 12.9835C9.71021 12.7728 10.4689 12.6405 11.0635 12.6405ZM11.0635 13.4738C10.6124 13.4738 10.0118 13.5698 9.36747 13.7275L8.85052 13.8652L8.70247 13.9075C8.24095 14.0388 7.9908 14.0938 7.74852 14.0938C7.55373 14.0938 7.3789 14.0665 7.15706 14.0082L6.73319 13.8842C6.53354 13.8267 6.33543 13.7768 6.13885 13.7347L5.30294 13.5775L5.0963 13.542C4.81969 13.497 4.60269 13.4738 4.43268 13.4738C2.81748 13.4738 1.49935 14.346 1.49935 15.2963V15.9038C1.49935 16.2401 1.7343 16.498 2.00361 16.498L13.4952 16.5005C13.7642 16.5005 13.9993 16.242 13.9993 15.9047V15.298C13.9993 14.2976 12.8032 13.4738 11.0635 13.4738ZM7.7461 4.00033C6.34751 4.00033 5.16089 5.04952 5.26829 6.2791L5.64216 9.38995C5.809 10.4829 6.6334 11.1945 7.7461 11.1945C8.80931 11.1945 9.61159 10.5451 9.82512 9.54784L9.85158 9.40305L10.214 6.39418C10.4205 5.12665 9.19588 4.00033 7.7461 4.00033Z" fill="#257FA4"/>
</svg>
