<svg width="24" height="24" viewBox="0 0 24 24" fill="none" xmlns="http://www.w3.org/2000/svg">
<g id="D. Objects &#38; Activities/D0150-agriculture workers | OBJECTS, shovel, pitchfork, pala, horca ACTIVITIES, agriculture, workers, agricultura, trrabajadores">
<path id="Vector" fillRule="evenodd" clipRule="evenodd" d="M7.5 2C8.27835 2 8.92029 2.59615 8.99312 3.35576L9 3.5V13H10.5C10.7453 13 10.9496 13.177 10.9919 13.4102L11 13.5V16.5C11 19.7827 9.73686 21.1064 8.72818 21.64L8.5424 21.731C8.51206 21.7448 8.48206 21.7578 8.45245 21.7702L8.27978 21.8367C8.25191 21.8465 8.22451 21.8558 8.19764 21.8645L8.04309 21.9103L7.9034 21.9444L7.72658 21.9774L7.5 22L7.32252 21.9845L7.16018 21.9576L6.95691 21.9103L6.80237 21.8645L6.63519 21.8053C6.5776 21.7831 6.51828 21.7585 6.4576 21.731L6.27182 21.64C5.29466 21.1231 4.0787 19.8647 4.00365 16.8021L4 16.5V13.5C4 13.2547 4.17699 13.0504 4.41016 13.0081L4.5 13H6V3.5C6 2.673 6.673 2 7.5 2ZM19.5 2C19.7453 2 19.9496 2.17699 19.9919 2.41016L20 2.5V6.494C20 7.27789 19.397 7.92441 18.6308 7.99383L18.494 8H18V20.5C18 21.327 17.327 22 16.5 22C15.7216 22 15.0797 21.4038 15.0069 20.6442L15 20.5V8H14.506C13.7221 8 13.0756 7.39702 13.0062 6.63082L13 6.494V2.5C13 2.224 13.224 2 13.5 2C13.7453 2 13.9496 2.17699 13.9919 2.41016L14 2.5V6.494C14 6.742 14.1794 6.94891 14.4152 6.99183L14.506 7H15V2.5C15 2.224 15.224 2 15.5 2C15.7453 2 15.9496 2.17699 15.9919 2.41016L16 2.5V7H17V2.5C17 2.224 17.224 2 17.5 2C17.7453 2 17.9496 2.17699 17.9919 2.41016L18 2.5V7H18.494C18.742 7 18.9489 6.82064 18.9918 6.58483L19 6.494V2.5C19 2.224 19.224 2 19.5 2ZM5 16.5V14H7V17.5L7.00806 17.5898C7.05042 17.823 7.25467 18 7.5 18C7.776 18 8 17.776 8 17.5V14H10V16.5L9.99656 16.7843C9.93956 19.1023 9.18588 20.1456 8.52031 20.6153L8.36266 20.7174L8.21081 20.7996L8.06717 20.864L7.93414 20.9129L7.81414 20.9484L7.66384 20.9813L7.5 21L7.33976 20.9821L7.24454 20.9631C7.22672 20.959 7.20816 20.9545 7.1889 20.9495L7.06559 20.9131C7.04381 20.9059 7.02146 20.8982 6.99858 20.8897L6.85549 20.8311C6.11313 20.4956 5 19.4936 5 16.5ZM17 8H16V20.5C16 20.775 16.225 21 16.5 21C16.7444 21 16.9494 20.8222 16.9919 20.5896L17 20.5V8ZM7.00809 3.41043C7.05062 3.17778 7.25556 3 7.5 3C7.775 3 8 3.225 8 3.5V13H7V3.5L7.00809 3.41043Z" fill="#191D21"/>
</g>
</svg>
