<svg width="24" height="24" viewBox="0 0 24 24" fill="none" xmlns="http://www.w3.org/2000/svg">
<path d="M9.00434 4.99591C9.26976 4.99437 9.52487 5.09872 9.71331 5.28591L15.7046 11.2859C15.8937 11.4737 16 11.7293 16 11.9959C16 12.2625 15.8937 12.5181 15.7046 12.7059L9.71331 18.7059C9.32176 19.098 8.68692 19.098 8.29537 18.7059C7.90382 18.3138 7.90382 17.678 8.29537 17.2859L13.5877 11.9959L8.29537 6.70591C8.10633 6.51814 8 6.26255 8 5.99591C8 5.72927 8.10633 5.47368 8.29537 5.28591C8.48381 5.09872 8.73892 4.99437 9.00434 4.99591Z" fill="#EC0000"/>
<mask id="mask0_3122_64434" style="mask-type:alpha" maskUnits="userSpaceOnUse" x="8" y="4" width="8" height="15">
<path d="M9.00434 4.99591C9.26976 4.99437 9.52487 5.09872 9.71331 5.28591L15.7046 11.2859C15.8937 11.4737 16 11.7293 16 11.9959C16 12.2625 15.8937 12.5181 15.7046 12.7059L9.71331 18.7059C9.32176 19.098 8.68692 19.098 8.29537 18.7059C7.90382 18.3138 7.90382 17.678 8.29537 17.2859L13.5877 11.9959L8.29537 6.70591C8.10633 6.51814 8 6.26255 8 5.99591C8 5.72927 8.10633 5.47368 8.29537 5.28591C8.48381 5.09872 8.73892 4.99437 9.00434 4.99591Z" fill="white"/>
</mask>
<g mask="url(#mask0_3122_64434)">
</g>
</svg>
