<svg width="18" height="18" viewBox="0 0 18 18" fill="none" xmlns="http://www.w3.org/2000/svg">
<path fillRule="evenodd" clipRule="evenodd" d="M11.5099 0.666931C13.0236 0.666931 14.3334 1.82924 14.4191 3.26684L14.4235 3.41651L14.4245 16.0407C15.3146 16.1666 16.1783 16.3236 17.0081 16.5102C17.2326 16.5607 17.3737 16.7836 17.3232 17.0081C17.2727 17.2326 17.0498 17.3737 16.8252 17.3232C14.4359 16.7859 11.7503 16.5 8.96334 16.5C6.20595 16.5 3.54676 16.7801 1.17362 17.3068C0.948965 17.3566 0.726428 17.215 0.676568 16.9903C0.626707 16.7656 0.768403 16.5431 0.993055 16.4932C1.82743 16.3081 2.69543 16.1527 3.58944 16.0285L3.59017 3.41651C3.59017 1.94846 4.76501 0.749311 6.24452 0.670999L6.39863 0.666931H11.5099ZM11.5099 1.4838H6.39863C5.35367 1.4838 4.49853 2.27838 4.42908 3.28417L4.42453 3.41651L4.424 15.9224C5.67752 15.7779 6.97601 15.6932 8.29956 15.672L8.58325 15.6694L8.58334 12.3333C8.58334 12.1288 8.73073 11.9587 8.92511 11.9234L9 11.9167C9.20455 11.9167 9.37468 12.0641 9.40996 12.2585L9.41667 12.3333L9.41712 15.6692C10.8445 15.6848 12.2437 15.774 13.59 15.9325L13.5891 3.41651C13.5891 2.41479 12.7012 1.55518 11.643 1.48802L11.5099 1.4838ZM6.90996 13.0918C6.87468 12.8974 6.70455 12.75 6.5 12.75C6.26988 12.75 6.08334 12.9366 6.08334 13.1667V14.0933L6.09005 14.1682C6.12533 14.3626 6.29545 14.51 6.5 14.51C6.73012 14.51 6.91667 14.3235 6.91667 14.0933V13.1667L6.90996 13.0918ZM11.5 12.75C11.7046 12.75 11.8747 12.8974 11.91 13.0918L11.9167 13.1667V14.0933C11.9167 14.3235 11.7301 14.51 11.5 14.51C11.2955 14.51 11.1253 14.3626 11.09 14.1682L11.0833 14.0933V13.1667C11.0833 12.9366 11.2699 12.75 11.5 12.75ZM6.90996 9.75845C6.87468 9.56408 6.70455 9.41668 6.5 9.41668C6.26988 9.41668 6.08334 9.60323 6.08334 9.83335V10.76L6.09005 10.8349C6.12533 11.0293 6.29545 11.1767 6.5 11.1767C6.73012 11.1767 6.91667 10.9901 6.91667 10.76V9.83335L6.90996 9.75845ZM9 9.41668C9.20455 9.41668 9.37468 9.56408 9.40996 9.75845L9.41667 9.83335V10.76C9.41667 10.9901 9.23012 11.1767 9 11.1767C8.79545 11.1767 8.62533 11.0293 8.59005 10.8349L8.58334 10.76V9.83335C8.58334 9.60323 8.76988 9.41668 9 9.41668ZM11.91 9.75845C11.8747 9.56408 11.7046 9.41668 11.5 9.41668C11.2699 9.41668 11.0833 9.60323 11.0833 9.83335V10.76L11.09 10.8349C11.1253 11.0293 11.2955 11.1767 11.5 11.1767C11.7301 11.1767 11.9167 10.9901 11.9167 10.76V9.83335L11.91 9.75845ZM6.5 6.08335C6.70455 6.08335 6.87468 6.23074 6.90996 6.42512L6.91667 6.50001V7.42668C6.91667 7.6568 6.73012 7.84335 6.5 7.84335C6.29545 7.84335 6.12533 7.69595 6.09005 7.50158L6.08334 7.42668V6.50001C6.08334 6.2699 6.26988 6.08335 6.5 6.08335ZM9.40996 6.42512C9.37468 6.23074 9.20455 6.08335 9 6.08335C8.76988 6.08335 8.58334 6.2699 8.58334 6.50001V7.42668L8.59005 7.50158C8.62533 7.69595 8.79545 7.84335 9 7.84335C9.23012 7.84335 9.41667 7.6568 9.41667 7.42668V6.50001L9.40996 6.42512ZM11.5 6.08335C11.7046 6.08335 11.8747 6.23074 11.91 6.42512L11.9167 6.50001V7.42668C11.9167 7.6568 11.7301 7.84335 11.5 7.84335C11.2955 7.84335 11.1253 7.69595 11.09 7.50158L11.0833 7.42668V6.50001C11.0833 6.2699 11.2699 6.08335 11.5 6.08335ZM6.90996 3.09178C6.87468 2.89741 6.70455 2.75001 6.5 2.75001C6.26988 2.75001 6.08334 2.93656 6.08334 3.16668V4.09335L6.09005 4.16824C6.12533 4.36262 6.29545 4.51001 6.5 4.51001C6.73012 4.51001 6.91667 4.32347 6.91667 4.09335V3.16668L6.90996 3.09178ZM9 2.75001C9.20455 2.75001 9.37468 2.89741 9.40996 3.09178L9.41667 3.16668V4.09335C9.41667 4.32347 9.23012 4.51001 9 4.51001C8.79545 4.51001 8.62533 4.36262 8.59005 4.16824L8.58334 4.09335V3.16668C8.58334 2.93656 8.76988 2.75001 9 2.75001ZM11.91 3.09178C11.8747 2.89741 11.7046 2.75001 11.5 2.75001C11.2699 2.75001 11.0833 2.93656 11.0833 3.16668V4.09335L11.09 4.16824C11.1253 4.36262 11.2955 4.51001 11.5 4.51001C11.7301 4.51001 11.9167 4.32347 11.9167 4.09335V3.16668L11.91 3.09178Z" fill="#000000"/>
</svg>
