<svg width="24" height="24" viewBox="0 0 24 24" fill="none" xmlns="http://www.w3.org/2000/svg">
<path fillRule="evenodd" clipRule="evenodd" d="M16.6686 4.11739L16.7326 4.18106L21.8749 10.3094C22.0327 10.4974 22.0284 10.7675 21.8769 10.9499L21.8133 11.0138L12.297 18.9974L21.5 18.9975C21.7455 18.9975 21.9496 19.1744 21.9919 19.4077L22 19.4975C22 19.743 21.8231 19.9472 21.5899 19.9895L21.5 19.9975H2.5C2.22386 19.9975 2 19.7737 2 19.4975C2 19.2521 2.17688 19.0479 2.41012 19.0056L2.5 18.9975L5.668 18.9974L2.94379 15.7512C2.78601 15.5632 2.79028 15.2931 2.94175 15.1108L3.00542 15.0468L16.0282 4.11943C16.1927 3.98137 16.42 3.96739 16.5965 4.06752L16.6686 4.11739ZM16.2879 5.20687L4.03123 15.4915L6.973 18.9974H10.742L20.7875 10.5692L16.2879 5.20687ZM17.7714 8.54201C17.5939 8.33047 17.2785 8.30288 17.067 8.48038L7.11532 16.8308L7.05165 16.8948C6.90019 17.0771 6.89592 17.3472 7.0537 17.5353C7.2312 17.7468 7.54657 17.7744 7.75811 17.5969L17.7098 9.24643L17.7735 9.18249C17.9249 9.00012 17.9292 8.73004 17.7714 8.54201ZM8.87997 12.7256C9.09168 12.5483 9.40703 12.5762 9.58433 12.7879C9.74193 12.9761 9.7374 13.2462 9.58576 13.4284L9.52203 13.4923L6.45734 16.0589C6.24563 16.2362 5.93028 16.2083 5.75298 15.9966C5.59538 15.8084 5.59991 15.5383 5.75155 15.3561L5.81528 15.2922L8.87997 12.7256ZM19.0549 10.0713C18.8774 9.85981 18.5621 9.83222 18.3505 10.0097L16.0524 11.9381L15.9887 12.002C15.8373 12.1844 15.833 12.4545 15.9908 12.6425C16.1683 12.854 16.4836 12.8816 16.6952 12.7041L18.9933 10.7758L19.057 10.7118C19.2085 10.5295 19.2127 10.2594 19.0549 10.0713Z" fill="#1E1F21"/>
</svg>
