<svg width="18" height="20" viewBox="0 0 18 20" fill="none" xmlns="http://www.w3.org/2000/svg">
<path d="M11.175 5.42311L3.79295 12.9722C2.94737 13.8369 2.94465 15.2328 3.78808 16.0953C4.63753 16.964 6.02165 16.9604 6.87342 16.0893L17.004 5.72957C18.3045 4.39966 18.3403 2.30655 17.0558 0.991913C15.7588 -0.33449 13.6474 -0.329758 12.3474 1.00088L1.40309 12.1927C-0.150851 13.783 -0.472 16.2662 0.731709 18.0417C2.32231 20.3886 5.55455 20.6612 7.50002 18.6729L15.8315 10.1529C16.0246 9.95552 16.021 9.63895 15.8236 9.44589C15.6262 9.25282 15.3096 9.25636 15.1165 9.45379L6.78515 17.9736C5.28027 19.5117 2.79388 19.3019 1.55946 17.4806C0.632154 16.1128 0.885589 14.1532 2.11818 12.8918L13.0625 1.69988C13.9712 0.769854 15.4368 0.766569 16.3407 1.69091C17.2399 2.61126 17.2148 4.08377 16.2891 5.03041L6.15845 15.3902C5.69811 15.8609 4.95942 15.8629 4.50305 15.3962C4.04027 14.9229 4.04177 14.148 4.50792 13.6713L11.89 6.12227C12.0831 5.92483 12.0795 5.60827 11.8821 5.41521C11.6846 5.22214 11.3681 5.22568 11.175 5.42311Z" fill="#1D6E8F"/>
</svg>
