<svg width="20" height="20" viewBox="0 0 20 20" fill="none" xmlns="http://www.w3.org/2000/svg">
<g id="close, cross, aspa, cierre, cerrar">
<path id="Vector" d="M14.9959 4.16666C15.2179 4.16666 15.4307 4.25536 15.5871 4.41305C15.9099 4.73795 15.9099 5.26267 15.5871 5.58757L11.1784 9.99832L15.5871 14.4089C15.7447 14.5653 15.8334 14.7782 15.8334 15.0003C15.8334 15.2224 15.7447 15.4353 15.5871 15.5917C15.4299 15.7477 15.2172 15.8346 14.9959 15.8333C14.7746 15.8346 14.5618 15.7477 14.4047 15.5917L9.99585 11.1808L5.59534 15.5834C5.43957 15.7424 5.22668 15.8324 5.00416 15.8333C4.78284 15.8346 4.57012 15.7477 4.41298 15.5917C4.25535 15.4353 4.16669 15.2224 4.16669 15.0003C4.16669 14.7782 4.25535 14.5653 4.41298 14.4089L8.81669 10.0025L4.41298 5.59589C4.08648 5.26926 4.08648 4.73969 4.41298 4.41305C4.73948 4.08642 5.26884 4.08642 5.59534 4.41305L10 8.81916L14.4047 4.41305C14.561 4.25536 14.7739 4.16666 14.9959 4.16666Z" fill="#191D21"/>
</g>
</svg>
