<svg width="24" height="24" viewBox="0 0 24 24" fill="none" xmlns="http://www.w3.org/2000/svg">
<g id="B. Digital,  Tech &#38; Docs/a. Devices/BA140-desktop | DEVICES, computer, desktop, ordenador, escritorio, computadora, imac, mac, monitor, apple">
<path id="Vector" fillRule="evenodd" clipRule="evenodd" d="M4.8501 2.00535C3.26074 2.09746 2 3.41579 2 5.02821V14.4903C2 16.1615 3.35486 17.5163 5.026 17.5163L9.878 17.5162L9.104 20.9992L8.5049 21L8.41502 21.0081C8.18178 21.0504 8.0049 21.2546 8.0049 21.5C8.0049 21.7762 8.22876 22 8.5049 22H15.5049L15.5948 21.992C15.828 21.9496 16.0049 21.7455 16.0049 21.5L15.9968 21.4101C15.9545 21.1769 15.7504 21 15.5049 21L14.906 20.9992L14.132 17.5162L18.971 17.5163C20.644 17.5163 22 16.1606 22 14.4883V5.02621L21.9949 4.84842C21.9028 3.26002 20.5855 2.00021 18.974 2.00021H5.028L4.8501 2.00535ZM10.903 17.5162H13.107L13.882 20.9992H10.128L10.903 17.5162ZM21 14.0003H3V14.4903C3 15.6092 3.90714 16.5163 5.026 16.5163H18.971C20.0917 16.5163 21 15.6083 21 14.4883V14.0003ZM5.028 3.00021H18.974L19.1252 3.00577C20.1735 3.08312 21 3.95821 21 5.02621V13.0002H3V5.02821L3.00556 4.87688C3.083 3.82767 3.95905 3.00021 5.028 3.00021Z" fill="#191D21"/>
</g>
</svg>
