<svg width="24" height="24" viewBox="0 0 24 24" fill="none" xmlns="http://www.w3.org/2000/svg">
<g id="B. Digital,  Tech &#38; Docs/d. Symbols/BD110-3 dots vertical | SYMBOLS, ellipsis, puntos suspensivos, m&#195;&#161;s, more, menu, options, opciones, contextual">
<path id="Vector" fill-rule="evenodd" clip-rule="evenodd" d="M9.5 4.4994C9.5 5.87966 10.62 7.0004 12 7.0004C13.38 7.0004 14.5 5.87966 14.5 4.4994C14.5 3.11937 13.3803 2.0004 12 2.0004C10.6197 2.0004 9.5 3.11937 9.5 4.4994ZM12 3.0004C11.1719 3.0004 10.5 3.67181 10.5 4.4994C10.5 5.32753 11.1724 6.0004 12 6.0004C12.8276 6.0004 13.5 5.32753 13.5 4.4994C13.5 3.67181 12.8281 3.0004 12 3.0004ZM9.5 11.9965C9.5 13.3766 10.6199 14.4965 12 14.4965C13.3808 14.4965 14.5 13.3769 14.5 11.9965C14.5 10.6161 13.3808 9.4965 12 9.4965C10.6199 9.4965 9.5 10.6164 9.5 11.9965ZM12 10.4965C11.1721 10.4965 10.5 11.1686 10.5 11.9965C10.5 12.8244 11.1721 13.4965 12 13.4965C12.8285 13.4965 13.5 12.8247 13.5 11.9965C13.5 11.1683 12.8285 10.4965 12 10.4965ZM9.5 19.5004C9.5 20.8805 10.6199 22.0004 12 22.0004C13.3801 22.0004 14.5 20.8805 14.5 19.5004C14.5 18.1203 13.3801 17.0004 12 17.0004C10.6199 17.0004 9.5 18.1203 9.5 19.5004ZM10.5 19.5004C10.5 18.6725 11.1721 18.0004 12 18.0004C12.8279 18.0004 13.5 18.6725 13.5 19.5004C13.5 20.3283 12.8279 21.0004 12 21.0004C11.1721 21.0004 10.5 20.3283 10.5 19.5004Z" fill="#191D21"/>
</g>
</svg>
