<svg width="24" height="24" viewBox="0 0 24 24" fill="none" xmlns="http://www.w3.org/2000/svg">
<path fillRule="evenodd" clipRule="evenodd" d="M12.5262 2.42636C12.481 2.18372 12.2628 2 12 2C11.7044 2 11.4652 2.23252 11.4652 2.51987V15.2257L8.41295 12.2588L8.33887 12.1987C8.13043 12.0583 7.84239 12.0783 7.65669 12.2588C7.55223 12.3604 7.5 12.4934 7.5 12.6264C7.5 12.7594 7.55223 12.8924 7.65669 12.9939L11.6212 16.8476L11.6738 16.8925C11.7109 16.9201 11.7519 16.9429 11.7958 16.9606C11.9265 17.0131 12.0735 17.0131 12.2042 16.9606C12.27 16.9341 12.3293 16.8959 12.3788 16.8476L16.3433 12.9939L16.4052 12.9219C16.5496 12.7193 16.529 12.4393 16.3433 12.2588C16.1344 12.0558 15.796 12.0558 15.587 12.2588L12.5348 15.2257V2.51987L12.5262 2.42636ZM21.9971 15.4991C21.9971 15.2232 21.7734 15 21.4971 15C21.2207 15 20.9971 15.2232 20.9971 15.4991V18.0345C20.9971 19.6702 19.6631 21.0018 18.0244 21.0018H5.97266C4.33398 21.0018 3 19.6702 3 18.0345V15.4991C3 15.2232 2.77637 15 2.5 15C2.22363 15 2 15.2232 2 15.4991V18.0345C2 20.221 3.78223 22 5.97266 22H18.0244C20.2148 22 21.9971 20.221 21.9971 18.0345V15.4991Z" fill="#1E1F21"/>
</svg>
