<svg width="20" height="20" viewBox="0 0 20 20" fill="none" xmlns="http://www.w3.org/2000/svg">
<path fillRule="evenodd" clipRule="evenodd" d="M10.5262 0.426358C10.481 0.183718 10.2628 0 10 0C9.70439 0 9.46518 0.232518 9.46518 0.519866V13.2257L6.41295 10.2588L6.33887 10.1987C6.13043 10.0583 5.84239 10.0783 5.65669 10.2588C5.55223 10.3604 5.5 10.4934 5.5 10.6264C5.5 10.7594 5.55223 10.8924 5.65669 10.9939L9.62121 14.8476L9.67384 14.8925C9.71095 14.9201 9.75191 14.9429 9.79579 14.9606C9.92649 15.0131 10.0735 15.0131 10.2042 14.9606C10.27 14.9341 10.3293 14.8959 10.3788 14.8476L14.3433 10.9939L14.4052 10.9219C14.5496 10.7193 14.529 10.4393 14.3433 10.2588C14.1344 10.0558 13.796 10.0558 13.587 10.2588L10.5348 13.2257V0.519866L10.5262 0.426358ZM19.9971 13.4991C19.9971 13.2232 19.7734 13 19.4971 13C19.2207 13 18.9971 13.2232 18.9971 13.4991V16.0345C18.9971 17.6702 17.6631 19.0018 16.0244 19.0018H3.97266C2.33398 19.0018 1 17.6702 1 16.0345V13.4991C1 13.2232 0.776367 13 0.5 13C0.223633 13 0 13.2232 0 13.4991V16.0345C0 18.221 1.78223 20 3.97266 20H16.0244C18.2148 20 19.9971 18.221 19.9971 16.0345V13.4991Z" fill="#357793"/>
</svg>
