<svg width="15" height="16" viewBox="0 0 15 16" fill="none" xmlns="http://www.w3.org/2000/svg">
<path d="M7.50008 0.916626C3.59008 0.916626 0.416748 4.08996 0.416748 7.99996C0.416748 11.91 3.59008 15.0833 7.50008 15.0833C11.4101 15.0833 14.5834 11.91 14.5834 7.99996C14.5834 4.08996 11.4101 0.916626 7.50008 0.916626ZM7.50008 8.70829C7.1105 8.70829 6.79175 8.38954 6.79175 7.99996V5.16663C6.79175 4.77704 7.1105 4.45829 7.50008 4.45829C7.88966 4.45829 8.20841 4.77704 8.20841 5.16663V7.99996C8.20841 8.38954 7.88966 8.70829 7.50008 8.70829ZM8.20841 11.5416H6.79175V10.125H8.20841V11.5416Z" fill="#F52046"/>
</svg>
