<svg width="11" height="11" viewBox="0 0 11 11" fill="none" xmlns="http://www.w3.org/2000/svg">
<path d="M5.13503 8.20834H5.94753V4.95834H5.13503V8.20834ZM5.50065 3.95626C5.62704 3.95626 5.73312 3.91564 5.81888 3.83438C5.90464 3.75313 5.94753 3.64932 5.94753 3.52293C5.94753 3.39654 5.90464 3.2882 5.81888 3.19793C5.73312 3.10765 5.62704 3.06251 5.50065 3.06251C5.37426 3.06251 5.26819 3.10765 5.18242 3.19793C5.09666 3.2882 5.05378 3.39654 5.05378 3.52293C5.05378 3.64932 5.09666 3.75313 5.18242 3.83438C5.26819 3.91564 5.37426 3.95626 5.50065 3.95626ZM5.50065 10.9167C4.76037 10.9167 4.06072 10.7745 3.40169 10.4901C2.74266 10.2057 2.16714 9.81754 1.67513 9.32553C1.18312 8.83352 0.794922 8.258 0.510547 7.59897C0.226172 6.93994 0.0839844 6.23577 0.0839844 5.48647C0.0839844 4.74619 0.226172 4.04654 0.510547 3.38751C0.794922 2.72848 1.18312 2.15522 1.67513 1.66772C2.16714 1.18022 2.74266 0.794281 3.40169 0.509906C4.06072 0.225531 4.76489 0.0833435 5.51419 0.0833435C6.25447 0.0833435 6.95412 0.225531 7.61315 0.509906C8.27218 0.794281 8.84544 1.18022 9.33294 1.66772C9.82044 2.15522 10.2064 2.72848 10.4908 3.38751C10.7751 4.04654 10.9173 4.7507 10.9173 5.50001C10.9173 6.24029 10.7751 6.93994 10.4908 7.59897C10.2064 8.258 9.82044 8.83352 9.33294 9.32553C8.84544 9.81754 8.27218 10.2057 7.61315 10.4901C6.95412 10.7745 6.24996 10.9167 5.50065 10.9167ZM5.51419 10.1042C6.78711 10.1042 7.87044 9.65504 8.76419 8.75678C9.65794 7.85852 10.1048 6.76841 10.1048 5.48647C10.1048 4.21355 9.65794 3.13022 8.76419 2.23647C7.87044 1.34272 6.7826 0.895843 5.50065 0.895843C4.22773 0.895843 3.14214 1.34272 2.24388 2.23647C1.34562 3.13022 0.896484 4.21807 0.896484 5.50001C0.896484 6.77293 1.34562 7.85852 2.24388 8.75678C3.14214 9.65504 4.23225 10.1042 5.51419 10.1042Z" fill="#414141"/>
</svg>