<svg width="19" height="24" viewBox="0 0 19 24" fill="none" xmlns="http://www.w3.org/2000/svg">
<path d="M7.65714 2C8.07269 2.36451 8.42991 2.6707 8.77984 2.99148C10.2379 4.34017 11.1638 6.02423 11.8199 7.86866C12.1334 8.74349 12.3667 9.65477 12.5999 10.5515C12.8041 11.317 13.6862 11.7398 14.3788 11.3097C14.8089 11.0399 15.1807 10.6608 15.5452 10.2963C15.7712 10.0776 15.9389 9.80787 16.1211 9.56729C16.8502 11.2295 17.222 12.9573 17.1126 14.7798C16.8939 18.3958 14.3861 21.239 10.7992 21.8805C7.11766 22.5367 3.45066 20.4371 2.27693 16.8867C1.94158 15.8661 1.8541 14.8163 1.95616 13.7446C2.02177 13.0375 2.18945 12.498 2.43732 11.8273C2.65603 11.2295 3.00596 10.6171 3.39963 10.1505C3.92453 9.52355 4.4713 8.91846 4.9962 8.29149C6.31574 6.73138 7.18328 4.95985 7.48947 2.93315C7.53321 2.64154 7.59153 2.3718 7.65714 2Z" stroke="#979797" stroke-width="2.2" stroke-miterlimit="10" stroke-linejoin="round"/>
</svg>
