<svg width="18" height="18" viewBox="0 0 18 18" fill="none" xmlns="http://www.w3.org/2000/svg">
<path fillRule="evenodd" clipRule="evenodd" d="M11.5103 0.666931C13.0241 0.666931 14.3338 1.82924 14.4195 3.26684L14.4239 3.41651L14.4249 16.0407C15.315 16.1666 16.1787 16.3236 17.0085 16.5102C17.233 16.5607 17.3741 16.7836 17.3236 17.0081C17.2731 17.2326 17.0502 17.3737 16.8257 17.3232C14.4364 16.7859 11.7507 16.5 8.96375 16.5C6.20636 16.5 3.54718 16.7801 1.17403 17.3068C0.949377 17.3566 0.72684 17.215 0.67698 16.9903C0.627119 16.7656 0.768815 16.5431 0.993467 16.4932C1.82784 16.3081 2.69584 16.1527 3.58986 16.0285L3.59058 3.41651C3.59058 1.94846 4.76542 0.749311 6.24493 0.670999L6.39904 0.666931H11.5103ZM11.5103 1.4838H6.39904C5.35408 1.4838 4.49894 2.27838 4.42949 3.28417L4.42494 3.41651L4.42441 15.9224C5.67793 15.7779 6.97642 15.6932 8.29998 15.672L8.58366 15.6694L8.58375 12.3333C8.58375 12.1288 8.73114 11.9587 8.92552 11.9234L9.00041 11.9167C9.20496 11.9167 9.37509 12.0641 9.41037 12.2585L9.41708 12.3333L9.41753 15.6692C10.8449 15.6848 12.2442 15.774 13.5904 15.9325L13.5896 3.41651C13.5896 2.41479 12.7016 1.55518 11.6434 1.48802L11.5103 1.4838ZM6.91037 13.0918C6.87509 12.8974 6.70496 12.75 6.50041 12.75C6.2703 12.75 6.08375 12.9366 6.08375 13.1667V14.0933L6.09046 14.1682C6.12574 14.3626 6.29586 14.51 6.50041 14.51C6.73053 14.51 6.91708 14.3235 6.91708 14.0933V13.1667L6.91037 13.0918ZM11.5004 12.75C11.705 12.75 11.8751 12.8974 11.9104 13.0918L11.9171 13.1667V14.0933C11.9171 14.3235 11.7305 14.51 11.5004 14.51C11.2959 14.51 11.1257 14.3626 11.0905 14.1682L11.0837 14.0933V13.1667C11.0837 12.9366 11.2703 12.75 11.5004 12.75ZM6.91037 9.75845C6.87509 9.56408 6.70496 9.41668 6.50041 9.41668C6.2703 9.41668 6.08375 9.60323 6.08375 9.83335V10.76L6.09046 10.8349C6.12574 11.0293 6.29586 11.1767 6.50041 11.1767C6.73053 11.1767 6.91708 10.9901 6.91708 10.76V9.83335L6.91037 9.75845ZM9.00041 9.41668C9.20496 9.41668 9.37509 9.56408 9.41037 9.75845L9.41708 9.83335V10.76C9.41708 10.9901 9.23053 11.1767 9.00041 11.1767C8.79587 11.1767 8.62574 11.0293 8.59046 10.8349L8.58375 10.76V9.83335C8.58375 9.60323 8.7703 9.41668 9.00041 9.41668ZM11.9104 9.75845C11.8751 9.56408 11.705 9.41668 11.5004 9.41668C11.2703 9.41668 11.0837 9.60323 11.0837 9.83335V10.76L11.0905 10.8349C11.1257 11.0293 11.2959 11.1767 11.5004 11.1767C11.7305 11.1767 11.9171 10.9901 11.9171 10.76V9.83335L11.9104 9.75845ZM6.50041 6.08335C6.70496 6.08335 6.87509 6.23074 6.91037 6.42512L6.91708 6.50001V7.42668C6.91708 7.6568 6.73053 7.84335 6.50041 7.84335C6.29586 7.84335 6.12574 7.69595 6.09046 7.50158L6.08375 7.42668V6.50001C6.08375 6.2699 6.2703 6.08335 6.50041 6.08335ZM9.41037 6.42512C9.37509 6.23074 9.20496 6.08335 9.00041 6.08335C8.7703 6.08335 8.58375 6.2699 8.58375 6.50001V7.42668L8.59046 7.50158C8.62574 7.69595 8.79587 7.84335 9.00041 7.84335C9.23053 7.84335 9.41708 7.6568 9.41708 7.42668V6.50001L9.41037 6.42512ZM11.5004 6.08335C11.705 6.08335 11.8751 6.23074 11.9104 6.42512L11.9171 6.50001V7.42668C11.9171 7.6568 11.7305 7.84335 11.5004 7.84335C11.2959 7.84335 11.1257 7.69595 11.0905 7.50158L11.0837 7.42668V6.50001C11.0837 6.2699 11.2703 6.08335 11.5004 6.08335ZM6.91037 3.09178C6.87509 2.89741 6.70496 2.75001 6.50041 2.75001C6.2703 2.75001 6.08375 2.93656 6.08375 3.16668V4.09335L6.09046 4.16824C6.12574 4.36262 6.29586 4.51001 6.50041 4.51001C6.73053 4.51001 6.91708 4.32347 6.91708 4.09335V3.16668L6.91037 3.09178ZM9.00041 2.75001C9.20496 2.75001 9.37509 2.89741 9.41037 3.09178L9.41708 3.16668V4.09335C9.41708 4.32347 9.23053 4.51001 9.00041 4.51001C8.79587 4.51001 8.62574 4.36262 8.59046 4.16824L8.58375 4.09335V3.16668C8.58375 2.93656 8.7703 2.75001 9.00041 2.75001ZM11.9104 3.09178C11.8751 2.89741 11.705 2.75001 11.5004 2.75001C11.2703 2.75001 11.0837 2.93656 11.0837 3.16668V4.09335L11.0905 4.16824C11.1257 4.36262 11.2959 4.51001 11.5004 4.51001C11.7305 4.51001 11.9171 4.32347 11.9171 4.09335V3.16668L11.9104 3.09178Z" fill="#357793"/>
</svg>
