<svg width="14" height="15" viewBox="0 0 14 15" fill="none" xmlns="http://www.w3.org/2000/svg">
<g opacity="0.45">
<path fillRule="evenodd" clipRule="evenodd" d="M1.75 3.99984C1.75 2.71117 2.79467 1.6665 4.08333 1.6665H7.58333C8.87197 1.6665 9.91667 2.71117 9.91667 3.99984V8.6665C11.2053 8.6665 12.25 9.7112 12.25 10.9998C12.25 12.2885 11.2053 13.3332 9.91667 13.3332H4.66667C3.05584 13.3332 1.75 12.0273 1.75 10.4165V3.99984ZM8.75 8.6665V3.99984C8.75 3.3555 8.22768 2.83317 7.58333 2.83317H4.08333C3.439 2.83317 2.91667 3.3555 2.91667 3.99984V10.4165C2.91667 11.1785 3.40364 11.8267 4.08333 12.0669V11.5832C4.08333 9.97235 5.38917 8.6665 7 8.6665H8.75ZM5.25 12.1665V11.5832C5.25 10.6166 6.03347 9.83317 7 9.83317H9.91667C10.561 9.83317 11.0833 10.3555 11.0833 10.9998C11.0833 11.6442 10.561 12.1665 9.91667 12.1665H5.25Z" fill="#414141"/>
<path fillRule="evenodd" clipRule="evenodd" d="M4.08301 4.58333C4.08301 4.26117 4.34418 4 4.66634 4H6.99967C7.32185 4 7.58301 4.26117 7.58301 4.58333C7.58301 4.9055 7.32185 5.16667 6.99967 5.16667H4.66634C4.34418 5.16667 4.08301 4.9055 4.08301 4.58333Z" fill="#414141"/>
<path fillRule="evenodd" clipRule="evenodd" d="M4.08301 6.91683C4.08301 6.59465 4.34418 6.3335 4.66634 6.3335H6.99967C7.32185 6.3335 7.58301 6.59465 7.58301 6.91683C7.58301 7.239 7.32185 7.50016 6.99967 7.50016H4.66634C4.34418 7.50016 4.08301 7.239 4.08301 6.91683Z" fill="#414141"/>
</g>
</svg>
