<svg width="24" height="24" viewBox="0 0 24 24" fill="none" xmlns="http://www.w3.org/2000/svg">
<g id="D. Objects &#38; Activities/D0210-pin | OBJECTS, pin ACTIVITIES,">
<path id="Vector" fill-rule="evenodd" clip-rule="evenodd" d="M21.8532 9.42245L14.5772 2.14645C14.3819 1.95118 14.0653 1.95118 13.87 2.14645L13.061 2.95545C12.0934 3.92204 11.9861 5.42436 12.7392 6.51124L9.35033 9.90016C7.80838 8.70551 5.58249 8.81595 4.16791 10.2316C3.97278 10.4269 3.97283 10.7433 4.16803 10.9385L8.261 15.031L2.14645 21.1464L2.08859 21.2157C1.9536 21.4106 1.97288 21.68 2.14645 21.8536L2.21569 21.9114C2.41056 22.0464 2.67999 22.0271 2.85355 21.8536L8.968 15.738L13.061 19.8325C13.2563 20.0278 13.5729 20.0278 13.7682 19.8326C15.1836 18.4171 15.2941 16.1913 14.0995 14.6502L17.4891 11.2606C18.5753 12.0145 20.0777 11.907 21.0454 10.9384L21.8534 10.1293C22.0484 9.93404 22.0483 9.61762 21.8532 9.42245ZM13.768 3.66275L14.2236 3.20711L20.7927 9.77622L20.3378 10.2317C19.6402 10.9301 18.509 10.9301 17.8114 10.2316C17.6161 10.0362 17.2994 10.0361 17.104 10.2314L13.061 14.2744C12.8657 14.4698 12.8658 14.7864 13.0612 14.9817C14.0852 16.005 14.1931 17.5979 13.3846 18.7418L5.25859 10.6149C6.40186 9.80653 7.99487 9.91437 9.01905 10.9386C9.21431 11.1338 9.53089 11.1338 9.72615 10.9386L13.7682 6.89655C13.9633 6.70137 13.9634 6.38494 13.7684 6.18964C13.0704 5.49093 13.0704 4.35951 13.768 3.66275Z" fill="#191D21"/>
</g>
</svg>
