<svg width="21" height="24" viewBox="0 0 21 24" fill="none" xmlns="http://www.w3.org/2000/svg">
<path d="M2.00061 7.55092C2.00061 6.68645 2.00061 5.83266 2.00061 4.9682C2.00061 4.21046 2.28877 3.85828 3.02516 3.69819C5.52249 3.14323 8.0305 2.56692 10.5385 2.0333C10.88 1.95859 11.2856 2.02263 11.6378 2.09734C14.039 2.62028 16.4297 3.16457 18.8203 3.69819C19.4926 3.8476 19.8021 4.22114 19.8021 4.90417C19.8021 6.7078 19.8448 8.51143 19.7594 10.3044C19.6527 12.5776 18.9377 14.6801 17.721 16.6011C16.1842 19.0237 14.0817 20.774 11.435 21.8839C11.0614 22.0333 10.7306 22.044 10.3571 21.8839C6.32292 20.1443 3.69752 17.1667 2.47019 12.9511C2.11801 11.7452 1.98994 10.4965 2.00061 9.24782C2.00061 8.68219 2.00061 8.11655 2.00061 7.55092Z" stroke="#979797" stroke-width="2.2" stroke-miterlimit="10" stroke-linejoin="round"/>
<path d="M8 12.5L10 14L14.5 9" stroke="#979797" stroke-width="2.2" stroke-linecap="round"/>
</svg>
