<svg width="24" height="24" viewBox="0 0 24 24" fill="none" xmlns="http://www.w3.org/2000/svg">
<g id="B. Digital,  Tech &#38; Docs/c. Documents/BC270-scroll | DOCUMENTS, parchment, papyrus, scroll, roll, pergamino, papiro, rodillo, law, ley, bill, legal, university, universidad, institutional, institucional">
<path id="Vector" fillRule="evenodd" clipRule="evenodd" d="M20 2C21.0524 2 21.918 2.81728 21.9945 3.85093L22 4V5.5C22 5.74566 21.8233 5.94965 21.5899 5.99195L21.5 6H19L19.001 19.9932C19.002 21.0958 18.1127 21.988 17.0173 21.9965L17 22L16.9111 21.998L4.00098 22C2.94762 22 2.08201 21.1827 2.0055 20.1491L2 20V18.5C2 18.2543 2.1767 18.0503 2.41007 18.008L2.5 18H5V4C5 2.94711 5.81773 2.08197 6.85099 2.00549L7 2H20ZM15 19H3V20C3 20.5119 3.38734 20.9354 3.88444 20.9933L4.00098 21L15.2676 20.9985C15.126 20.7532 15.0346 20.4756 15.008 20.1797L15 20V19ZM7 3H18.2782L18.1978 3.15122C18.0736 3.40902 18 3.69508 18 4V19.998L17.9929 20.1149C17.9339 20.6133 17.5127 20.998 17.002 20.998H16.9375L16.8273 20.9851C16.3579 20.9031 16 20.4924 16 20V18.5L15.992 18.4101C15.9497 18.1767 15.7457 18 15.5 18H6V4L6.00674 3.88357C6.06456 3.38692 6.48765 3 7 3ZM15.5 12C15.7764 12 16 12.2236 16 12.5C16 12.7457 15.8233 12.9497 15.5899 12.992L15.5 13H8.5C8.22363 13 8 12.7764 8 12.5C8 12.2543 8.1767 12.0503 8.41007 12.008L8.5 12H15.5ZM16 9.5C16 9.22363 15.7764 9 15.5 9H8.5L8.41007 9.00805C8.1767 9.05035 8 9.25434 8 9.5C8 9.77637 8.22363 10 8.5 10H15.5L15.5899 9.99195C15.8233 9.94965 16 9.74566 16 9.5ZM15.5 6C15.7764 6 16 6.22363 16 6.5C16 6.74566 15.8233 6.94965 15.5899 6.99195L15.5 7H8.5C8.22363 7 8 6.77637 8 6.5C8 6.25434 8.1767 6.05035 8.41007 6.00805L8.5 6H15.5ZM19.0067 3.88357C19.0646 3.38692 19.4877 3 20 3C20.5518 3 21 3.44873 21 4V5H19V4L19.0067 3.88357Z" fill="#191D21"/>
</g>
</svg>
