<svg width="14" height="20" viewBox="0 0 14 20" fill="none" xmlns="http://www.w3.org/2000/svg">
<path fillRule="evenodd" clipRule="evenodd" d="M14 19.4996V0.499638C14 0.131641 13.6159 -0.110272 13.284 0.0486996L11.3292 0.985051L9.37583 0.0854073C9.24309 0.0242701 9.09024 0.0242701 8.9575 0.0854073L7 0.986971L5.0425 0.0854073C4.90976 0.0242701 4.75691 0.0242701 4.62417 0.0854073L2.67084 0.985051L0.715996 0.0486996C0.384108 -0.110272 0 0.131641 0 0.499638V19.4996C0 19.8644 0.377891 20.1064 0.709166 19.9538L2.66667 19.0522L4.62417 19.9538C4.75691 20.0149 4.90976 20.0149 5.0425 19.9538L7 19.0522L8.9575 19.9538C9.09024 20.0149 9.24309 20.0149 9.37583 19.9538L11.3333 19.0522L13.2908 19.9538C13.6221 20.1064 14 19.8644 14 19.4996ZM7.20917 1.9916L9.16667 1.09004L11.1242 1.9916C11.2593 2.05384 11.4151 2.05267 11.5493 1.98839L13 1.29353V18.7189L11.5425 18.0476C11.4098 17.9865 11.2569 17.9865 11.1242 18.0476L9.16667 18.9492L7.20917 18.0476C7.07642 17.9865 6.92358 17.9865 6.79083 18.0476L4.83333 18.9492L2.87583 18.0476C2.74309 17.9865 2.59024 17.9865 2.4575 18.0476L1 18.7189V1.29353L2.45067 1.98839C2.58486 2.05267 2.74069 2.05384 2.87583 1.9916L4.83333 1.09004L6.79083 1.9916C6.92358 2.05274 7.07642 2.05274 7.20917 1.9916ZM10.5002 14.0094C10.7763 14.0094 11.0002 14.2333 11.0002 14.5094C11.0002 14.7549 10.8233 14.959 10.5901 15.0014L10.5002 15.0094H3.5002C3.22406 15.0094 3.0002 14.7856 3.0002 14.5094C3.0002 14.264 3.17708 14.0598 3.41032 14.0175L3.5002 14.0094H10.5002ZM11.0002 11.5299C11.0002 11.2538 10.7763 11.0299 10.5002 11.0299H3.5002L3.41032 11.038C3.17708 11.0803 3.0002 11.2845 3.0002 11.5299C3.0002 11.8061 3.22406 12.0299 3.5002 12.0299H10.5002L10.5901 12.0219C10.8233 11.9795 11.0002 11.7754 11.0002 11.5299ZM10.5002 8.02994C10.7763 8.02994 11.0002 8.2538 11.0002 8.52994C11.0002 8.7754 10.8233 8.97955 10.5901 9.02188L10.5002 9.02994H3.5002C3.22406 9.02994 3.0002 8.80608 3.0002 8.52994C3.0002 8.28448 3.17708 8.08033 3.41032 8.03799L3.5002 8.02994H10.5002ZM11.0002 5.52994C11.0002 5.2538 10.7763 5.02994 10.5002 5.02994H3.5002L3.41032 5.03799C3.17708 5.08033 3.0002 5.28448 3.0002 5.52994C3.0002 5.80608 3.22406 6.02994 3.5002 6.02994H10.5002L10.5901 6.02188C10.8233 5.97955 11.0002 5.7754 11.0002 5.52994Z" fill="#1E1F21"/>
</svg>
