<svg width="16" height="20" viewBox="0 0 16 20" fill="none" xmlns="http://www.w3.org/2000/svg">
<path fillRule="evenodd" clipRule="evenodd" d="M11.9945 1.84883C11.9183 0.814633 11.0562 0 10.003 0H5.997L5.84791 0.00547746C4.81426 0.0817122 4 0.944243 4 1.998V3L1.517 2.99728L1.466 3H0.5L0.410124 3.00806C0.176875 3.05039 0 3.25454 0 3.5L0.00805567 3.58988C0.0503916 3.82312 0.25454 4 0.5 4H1V16.024L1.00486 16.2223C1.10819 18.3243 2.84535 19.997 4.973 19.997H11.027L11.2253 19.9921C13.3273 19.8888 15 18.1517 15 16.024V4H15.5L15.5899 3.99194C15.8231 3.94961 16 3.74546 16 3.5C16 3.22386 15.7761 3 15.5 3L14.517 2.99728L14.466 3H12V1.998L11.9945 1.84883ZM2 4H14V16.024L13.995 16.1987C13.9045 17.7592 12.6102 18.997 11.027 18.997H4.973L4.79832 18.992C3.23776 18.9015 2 17.6072 2 16.024V4ZM4.5 6C4.74546 6 4.94961 6.17688 4.99194 6.41012L5 6.5V16.5C5 16.7761 4.77614 17 4.5 17C4.25454 17 4.05039 16.8231 4.00806 16.5899L4 16.5V6.5C4 6.22386 4.22386 6 4.5 6ZM8.49194 6.41012C8.44961 6.17688 8.24546 6 8 6C7.72386 6 7.5 6.22386 7.5 6.5V16.5L7.50806 16.5899C7.55039 16.8231 7.75454 17 8 17C8.27614 17 8.5 16.7761 8.5 16.5V6.5L8.49194 6.41012ZM11.5 6C11.7455 6 11.9496 6.17688 11.9919 6.41012L12 6.5V16.5C12 16.7761 11.7761 17 11.5 17C11.2545 17 11.0504 16.8231 11.0081 16.5899L11 16.5V6.5C11 6.22386 11.2239 6 11.5 6ZM5.997 1H10.003L10.1193 1.00671C10.6154 1.06429 11 1.48566 11 1.998V3H5V1.998L5.0067 1.88151C5.06426 1.38477 5.48539 1 5.997 1Z" fill="#1E1F21"/>
</svg>
