<svg width="18" height="18" viewBox="0 0 18 18" fill="none" xmlns="http://www.w3.org/2000/svg">
<path fillRule="evenodd" clipRule="evenodd" d="M8.99996 0.666656C13.5951 0.666656 17.3333 4.40486 17.3333 8.99999C17.3333 11.1443 16.5124 13.0955 15.1771 14.5738C15.1514 14.6135 15.1211 14.6476 15.0837 14.6765C13.5617 16.3067 11.401 17.3333 8.99996 17.3333C6.59889 17.3333 4.43824 16.3067 2.91618 14.6765C2.87885 14.6476 2.84853 14.6135 2.82279 14.5738C1.48755 13.0955 0.666626 11.1443 0.666626 8.99999C0.666626 4.40486 4.40483 0.666656 8.99996 0.666656ZM11.9166 12.5779C11.5455 12.5779 11.0265 12.6486 10.4377 12.7781L10.2137 12.8293L9.93461 12.9005L9.92915 12.902C9.60411 12.9866 9.26864 13.0739 8.99996 13.0739C8.77307 13.0739 8.56337 13.0288 8.37273 12.9789L8.10274 12.9062C7.9313 12.8609 7.75859 12.8212 7.58474 12.7873L7.32312 12.7406L7.09037 12.7016L7.08082 12.6999C6.75941 12.6453 6.36291 12.5779 6.08329 12.5779C4.80478 12.5779 3.67701 13.1704 3.58884 13.8661L3.58329 13.9536V14.1732C4.94982 15.6035 6.87044 16.5 8.99996 16.5C11.0407 16.5 12.8897 15.6766 14.243 14.3492L14.4166 14.1732V13.9536C14.4166 13.1695 13.342 12.5779 11.9166 12.5779ZM1.49996 8.99999C1.49996 4.86465 4.86462 1.49999 8.99996 1.49999C13.1353 1.49999 16.5 4.86465 16.5 8.99999C16.5 10.6123 15.9836 12.1036 15.1144 13.3278C14.7344 12.3845 13.5135 11.7445 11.9166 11.7445C11.3006 11.7445 10.5458 11.8935 10.0201 12.0188L9.4556 12.1626C9.27738 12.206 9.10874 12.2405 8.99996 12.2405C8.82885 12.2405 8.64678 12.1906 8.45415 12.1378L8.45349 12.1376L8.31474 12.1002L8.03065 12.0299C7.84043 11.9862 7.64864 11.9488 7.45577 11.9179L7.00199 11.8416C6.69215 11.7906 6.36584 11.7445 6.08329 11.7445C4.56759 11.7445 3.29933 12.4225 2.89614 13.342C2.02069 12.1151 1.49996 10.6186 1.49996 8.99999ZM8.99792 2.8334C9.92485 2.8334 10.8599 3.25577 11.4381 3.93529C11.8813 4.45625 12.0867 5.0937 12.0251 5.74588L12.0041 5.90917L11.6818 8.48689C11.4707 9.87279 10.3928 10.7965 8.99792 10.7965C7.65906 10.7965 6.61251 9.94248 6.3477 8.65449L6.3197 8.49787L5.99418 5.89411C5.88066 5.19994 6.08167 4.49804 6.56181 3.93326C7.13879 3.25495 8.07223 2.8334 8.99792 2.8334ZM7.19698 4.47322C7.61975 3.97558 8.30986 3.66674 8.99792 3.66674C9.68762 3.66674 10.3794 3.97639 10.8033 4.47525C11.0292 4.74055 11.2782 5.18163 11.1793 5.79076L10.8566 8.37255L10.8302 8.51485C10.6358 9.39943 9.93069 9.96312 8.99792 9.96312C8.01851 9.96312 7.29057 9.33853 7.1449 8.38353L6.81897 5.7753L6.80174 5.62979C6.76341 5.10805 6.9896 4.71678 7.19698 4.47322Z" fill="#191D21"/>
</svg>
