<svg width="16" height="16" viewBox="0 0 16 16" fill="none" xmlns="http://www.w3.org/2000/svg">
<path d="M9.99678 12.6694C9.81983 12.6705 9.64976 12.6009 9.52413 12.4761L5.52992 8.4761C5.4039 8.35092 5.33301 8.18053 5.33301 8.00277C5.33301 7.82501 5.4039 7.65461 5.52992 7.52944L9.52413 3.52944C9.78517 3.26802 10.2084 3.26802 10.4694 3.52944C10.7305 3.79085 10.7305 4.21469 10.4694 4.4761L6.94121 8.00277L10.4694 11.5294C10.5955 11.6546 10.6663 11.825 10.6663 12.0028C10.6663 12.1805 10.5955 12.3509 10.4694 12.4761C10.3438 12.6009 10.1737 12.6705 9.99678 12.6694Z" fill="#808B95"/>
<mask id="mask0_4034_47619" style="mask-type:luminance" maskUnits="userSpaceOnUse" x="5" y="3" width="6" height="10">
<path d="M9.99678 12.6694C9.81983 12.6705 9.64976 12.6009 9.52413 12.4761L5.52992 8.4761C5.4039 8.35092 5.33301 8.18053 5.33301 8.00277C5.33301 7.82501 5.4039 7.65461 5.52992 7.52944L9.52413 3.52944C9.78517 3.26802 10.2084 3.26802 10.4694 3.52944C10.7305 3.79085 10.7305 4.21469 10.4694 4.4761L6.94121 8.00277L10.4694 11.5294C10.5955 11.6546 10.6663 11.825 10.6663 12.0028C10.6663 12.1805 10.5955 12.3509 10.4694 12.4761C10.3438 12.6009 10.1737 12.6705 9.99678 12.6694Z" fill="white"/>
</mask>
<g mask="url(#mask0_4034_47619)">
</g>
</svg>
