<svg width="161" height="20" viewBox="0 0 161 20" fill="none" xmlns="http://www.w3.org/2000/svg">
<path d="M3.69158 9.32054C5.34059 9.32054 6.45272 10.4966 6.45272 12.8742C6.45272 15.1496 5.43007 16.5685 3.11634 16.5685C2.10648 16.5685 1.35228 16.4023 0.725913 16.1722V6.7128C1.07106 6.58497 1.46733 6.54662 1.79969 6.54662V10.4071C2.19596 9.74238 2.7712 9.32054 3.69158 9.32054ZM3.10356 15.6865C4.73979 15.6865 5.36616 14.5488 5.36616 12.9126C5.36616 11.1357 4.68866 10.2026 3.38479 10.2026C2.72007 10.2026 2.22153 10.4966 1.79969 10.9568V15.4947C2.15761 15.6226 2.56667 15.6865 3.10356 15.6865ZM12.5625 9.48672H13.6619L10.8751 17.2972C10.3638 18.7289 9.67354 19.5342 8.43359 19.5342C8.26741 19.5342 8.02453 19.5086 7.83278 19.4575C7.83278 19.1379 7.87113 18.8567 7.92227 18.5499C8.03731 18.5755 8.20349 18.601 8.31854 18.601C9.09831 18.601 9.63519 18.2303 10.0826 16.8242L7.24476 9.48672H8.39524L10.5684 15.482L12.5625 9.48672Z" fill="#808B95"/>
<path d="M82.1419 9.48099C81.775 9.41193 81.402 9.37701 81.0282 9.37672C78.5172 9.37672 77.24 10.6796 77.24 12.9752C77.24 15.1638 78.4354 16.4141 80.2271 16.4141C81.2051 16.4141 81.7889 16.0367 82.1688 15.425L82.2505 16.2554H83.6219V7.13643C83.1324 7.13643 82.6035 7.17518 82.1419 7.33112V9.48099ZM82.1419 14.7403C81.7168 15.0629 81.1903 15.2376 80.6483 15.2358C79.3173 15.2358 78.7614 14.2974 78.7614 12.9688C78.7614 11.4841 79.4673 10.5984 80.9474 10.5984C81.3491 10.6029 81.7493 10.6465 82.1419 10.7285V14.7403ZM47.1567 15.4729L47.2385 16.2545H48.6089V9.74119C47.8222 9.48099 47.0211 9.37211 46.0431 9.37211C43.5311 9.37211 42.2549 10.6749 42.2549 12.9706C42.2549 15.1592 43.4503 16.4095 45.2419 16.4095C46.1873 16.4104 46.772 16.0505 47.1567 15.4729ZM43.7715 12.9715C43.7715 11.5128 44.4908 10.6011 46.0382 10.6011C46.3974 10.5969 46.7562 10.6232 47.1106 10.6796V14.7698C46.695 15.078 46.1835 15.2431 45.6584 15.2386C44.3274 15.2386 43.7715 14.2974 43.7715 12.9715ZM54.7542 16.2545H56.2478V11.8772C56.2478 10.3013 55.4467 9.37672 52.9481 9.37672C52.2288 9.37672 51.1834 9.51974 50.2332 9.7458V16.2591H51.7268V10.7054C52.1169 10.6405 52.5118 10.6057 52.9077 10.6011C54.4013 10.6011 54.7542 11.0957 54.7542 12.1254V16.2545ZM28.211 9.54558C28.1897 9.06239 28.0468 8.59133 27.7946 8.17261L25.5317 4.4108C25.3614 4.12856 25.2403 3.82159 25.173 3.50195L25.0768 3.65881C24.8013 4.11616 24.6563 4.63505 24.6563 5.16326C24.6563 5.69147 24.8013 6.21036 25.0768 6.6677L26.8877 9.6766C27.1627 10.1341 27.3074 10.6529 27.3074 11.181C27.3074 11.7092 27.1627 12.228 26.8877 12.6855L26.7915 12.8423C26.7241 12.5229 26.6033 12.216 26.4338 11.9335L24.7758 9.17834L23.7179 7.4197C23.5476 7.13745 23.4265 6.83048 23.3592 6.51085L23.263 6.6677C22.9889 7.12362 22.8442 7.64049 22.8432 8.1668C22.8421 8.69311 22.9849 9.21049 23.2572 9.66737L25.0739 12.6855C25.3489 13.143 25.4936 13.6618 25.4936 14.1899C25.4936 14.7181 25.3489 15.2369 25.0739 15.6944L24.9777 15.8512C24.9104 15.5316 24.7892 15.2246 24.619 14.9424L22.3561 11.1815C22.0578 10.6857 21.913 10.1185 21.9387 9.5465C19.5162 10.1536 17.8438 11.4435 17.8438 12.9365C17.8438 15.0134 21.0799 16.6973 25.072 16.6973C29.064 16.6973 32.3002 15.0134 32.3002 12.9365C32.3117 11.4426 30.6393 10.1527 28.2158 9.54558H28.211ZM61.3766 16.2019C61.4564 15.8014 61.5151 15.3974 61.5526 14.9913C61.1784 15.1216 60.7831 15.1875 60.3851 15.186C59.6657 15.186 59.231 14.8603 59.231 14.0142V10.8226H61.4583C61.5271 10.4172 61.5723 10.0084 61.5939 9.59817H59.2358V7.13643C58.7301 7.13521 58.2269 7.20516 57.7423 7.34404V14.183C57.7423 15.7728 58.6655 16.4104 60.1187 16.4104C60.5496 16.4188 60.9782 16.348 61.3814 16.2019H61.3766ZM37.7829 15.1601C36.9277 15.1535 36.0827 14.9809 35.2988 14.6527C35.1425 15.0756 35.0549 15.519 35.0391 15.9675C35.7999 16.3071 36.7096 16.463 37.8233 16.463C40.1314 16.463 41.3124 15.4342 41.3124 13.9357C41.3124 12.6726 40.593 11.9298 38.8687 11.2267L38.1349 10.9268C37.1847 10.5356 36.6548 10.1453 36.6548 9.46807C36.6548 8.79081 37.1982 8.33408 38.3792 8.33408C39.1383 8.34137 39.8909 8.4692 40.6065 8.71239C40.7569 8.29161 40.8481 7.85347 40.8777 7.40955C40.0779 7.14971 39.2379 7.0221 38.3936 7.03217C36.1932 7.03217 35.1238 7.98254 35.1238 9.46807C35.1238 10.8521 35.9893 11.5386 37.2694 12.0728L37.9618 12.3598C39.238 12.894 39.7535 13.2456 39.7535 14.0012C39.7535 14.7569 39.0456 15.1601 37.7829 15.1601ZM95.0547 9.37672C94.2123 9.37672 93.14 9.53266 92.5014 9.7458V16.2591H93.9921V10.6796C94.3563 10.6273 94.724 10.6011 95.0922 10.6011C95.4687 10.5974 95.845 10.6147 96.2194 10.6528C96.3133 10.251 96.3589 9.84017 96.355 9.42839C95.9228 9.38912 95.4888 9.37187 95.0547 9.37672ZM72.743 9.37672C72.0237 9.37672 70.9783 9.51974 70.0281 9.7458V16.2591H71.5207V10.7054C71.9112 10.6406 72.3064 10.6057 72.7027 10.6011C74.1962 10.6011 74.5491 11.0957 74.5491 12.1254V16.2545H76.0427V11.8772C76.0456 10.3013 75.2445 9.37672 72.7459 9.37672H72.743ZM88.1535 9.37672C85.7781 9.37672 84.8414 10.9139 84.8414 12.8543C84.8414 15.0817 86.0493 16.4104 88.5478 16.4104C89.3489 16.4104 90.0683 16.2932 90.7472 15.9943C90.8434 15.5643 90.9232 15.0716 90.978 14.6914C90.2269 15.0167 89.4123 15.1853 88.5882 15.186C87.2581 15.186 86.5523 14.6259 86.3618 13.467H91.1271C91.1826 13.1003 91.2099 12.7303 91.2089 12.3598C91.2117 10.7183 90.2885 9.37672 88.1564 9.37672H88.1535ZM86.3378 12.2675C86.4599 11.1603 87.0168 10.5744 88.0756 10.5744C89.1075 10.5744 89.7047 11.199 89.7047 12.2675H86.3378ZM68.4009 9.74119C67.6133 9.48099 66.8122 9.37211 65.8351 9.37211C63.3231 9.37211 62.0469 10.6749 62.0469 12.9706C62.0469 15.1592 63.2413 16.4095 65.034 16.4095C65.9841 16.4095 66.5727 16.0404 66.9487 15.472L67.0295 16.2535H68.4009V9.74119ZM66.9074 14.7698C66.4919 15.078 65.9804 15.2431 65.4552 15.2386C64.1242 15.2386 63.5674 14.3002 63.5674 12.9715C63.5674 11.5128 64.2867 10.6011 65.8351 10.6011C66.1942 10.597 66.553 10.6233 66.9074 10.6796V14.7698Z" fill="#808B95"/>
<path d="M104.112 16.5941C101.44 16.5941 100.008 14.6511 100.008 11.8516C100.008 8.98818 101.504 7.09629 104.099 7.09629C104.968 7.09629 105.684 7.24969 106.195 7.5437C106.17 7.96554 106.118 8.24676 106.016 8.51521C105.53 8.23398 104.866 8.08058 104.163 8.08058C102.284 8.08058 101.159 9.38445 101.159 11.8644C101.159 14.2676 102.335 15.6098 104.188 15.6098C104.942 15.6098 105.645 15.4564 106.17 15.188C106.144 15.5203 106.093 15.8655 105.991 16.2873C105.403 16.479 104.789 16.5941 104.112 16.5941ZM110.204 16.5685C108.21 16.5685 107.085 15.1624 107.085 12.9637C107.085 10.7395 108.197 9.32054 110.204 9.32054C112.211 9.32054 113.31 10.7395 113.31 12.9637C113.31 15.1752 112.185 16.5685 110.204 16.5685ZM110.204 15.6865C111.546 15.6865 112.211 14.6639 112.211 12.9637C112.211 11.2508 111.559 10.2026 110.204 10.2026C108.836 10.2026 108.197 11.2508 108.197 12.9637C108.197 14.6639 108.862 15.6865 110.204 15.6865ZM118.294 9.32054C119.777 9.32054 120.531 10.2281 120.531 11.7238V16.4023H119.458V12.0561C119.458 10.9184 119.074 10.2026 117.898 10.2026C117.169 10.2026 116.556 10.6244 116.185 11.0462V16.4023H115.111V9.48672H116.108L116.172 10.5605C116.671 9.74238 117.323 9.32054 118.294 9.32054ZM124.489 16.5685C123.71 16.5685 122.879 16.3896 122.329 16.07C122.355 15.7376 122.406 15.4564 122.483 15.1752C123.083 15.5203 123.889 15.6865 124.438 15.6865C125.474 15.6865 126.049 15.303 126.049 14.6383C126.049 13.9736 125.627 13.7051 124.822 13.4622L124.208 13.2705C123.173 12.9637 122.38 12.3885 122.38 11.2252C122.38 10.0236 123.275 9.32054 124.86 9.32054C125.614 9.32054 126.292 9.43559 126.88 9.6529C126.854 9.89578 126.816 10.2281 126.739 10.5349C126.151 10.3304 125.614 10.2026 124.924 10.2026C123.965 10.2026 123.454 10.5605 123.454 11.1869C123.454 11.7877 123.85 12.12 124.707 12.3885L125.32 12.593C126.484 12.9637 127.136 13.5134 127.136 14.5616C127.136 15.7248 126.202 16.5685 124.489 16.5685ZM133.25 9.48672H134.324V16.4023H133.327L133.263 15.3541C132.765 16.1467 132.1 16.5685 131.128 16.5685C129.646 16.5685 128.904 15.6609 128.904 14.1653V9.48672H129.978V13.833C129.978 14.9706 130.361 15.6865 131.525 15.6865C132.266 15.6865 132.867 15.2647 133.25 14.8428V9.48672ZM144.098 9.32054C145.594 9.32054 146.348 10.2281 146.348 11.711V16.4023H145.274V12.0305C145.274 10.9184 144.891 10.2026 143.689 10.2026C143.037 10.2026 142.449 10.5477 141.976 11.0207C142.015 11.238 142.04 11.4681 142.04 11.7238V16.4023H140.967V12.0561C140.967 10.9184 140.583 10.2026 139.407 10.2026C138.678 10.2026 138.065 10.6244 137.694 11.0462V16.4023H136.62V9.48672H137.617L137.681 10.5605C138.18 9.74238 138.832 9.32054 139.803 9.32054C140.852 9.32054 141.542 9.78073 141.849 10.5861C142.386 9.76795 143.012 9.32054 144.098 9.32054ZM153.897 12.4013C153.897 12.6825 153.872 13.1299 153.833 13.3088H149.193C149.321 14.9962 150.165 15.6865 151.545 15.6865C152.261 15.6865 153.002 15.482 153.642 15.0857C153.629 15.3925 153.552 15.8271 153.475 16.0828C152.913 16.3896 152.21 16.5685 151.481 16.5685C149.168 16.5685 148.068 15.1624 148.068 12.8998C148.068 10.8929 149.001 9.32054 151.123 9.32054C152.99 9.32054 153.897 10.5988 153.897 12.4013ZM151.085 10.2026C149.947 10.2026 149.308 11.0462 149.193 12.4268H152.798V12.3885C152.798 11.1229 152.274 10.2026 151.085 10.2026ZM158.621 9.33332C158.889 9.33332 159.209 9.37167 159.439 9.44837C159.439 9.71681 159.413 10.1131 159.324 10.3943C159.068 10.3304 158.749 10.3048 158.48 10.3048C157.892 10.3048 157.253 10.5477 156.831 11.0846V16.4023H155.757V9.48672H156.767L156.818 10.5221C157.202 9.78073 157.828 9.33332 158.621 9.33332Z" fill="#808B95"/>
</svg>
