<svg width="16" height="17" viewBox="0 0 16 17" fill="none" xmlns="http://www.w3.org/2000/svg">
<path d="M1.0102 0.648438C0.754673 0.648438 0.487464 0.734382 0.292448 0.929242C-0.0974828 1.31996 -0.0974828 1.97548 0.292448 2.3662L6.56459 8.64269L0.292448 14.9192C-0.0974828 15.3099 -0.0974828 15.9654 0.292448 16.3561C0.682479 16.7459 1.33792 16.7459 1.72795 16.3561L8 10.0797L14.272 16.3561C14.6621 16.7459 15.3175 16.7459 15.7076 16.3561C16.0975 15.9654 16.0975 15.3099 15.7076 14.9192L9.43541 8.64269L15.7076 2.3662C16.0975 1.97548 16.0975 1.31996 15.7076 0.929242C15.5125 0.734382 15.2452 0.648438 14.9898 0.648438C14.7343 0.648438 14.4672 0.734382 14.272 0.929242L8 7.20572L1.72795 0.929242C1.53294 0.734382 1.26573 0.648438 1.0102 0.648438Z" fill="black"/>
</svg>
