<svg width="16" height="20" viewBox="0 0 16 20" fill="none" xmlns="http://www.w3.org/2000/svg">
<path fillRule="evenodd" clipRule="evenodd" d="M11.9945 1.8498C11.9183 0.815609 11.0562 0.000976562 10.003 0.000976562H5.997L5.84791 0.00645402C4.81426 0.0826887 4 0.945219 4 1.99898V3.00098L1.517 2.99826L1.466 3.00098H0.5L0.410124 3.00903C0.176875 3.05137 0 3.25552 0 3.50098L0.00805567 3.59085C0.0503916 3.8241 0.25454 4.00098 0.5 4.00098H1V16.025L1.00486 16.2233C1.10819 18.3253 2.84535 19.998 4.973 19.998H11.027L11.2253 19.9931C13.3273 19.8898 15 18.1526 15 16.025V4.00098H15.5L15.5899 3.99292C15.8231 3.95058 16 3.74644 16 3.50098C16 3.22483 15.7761 3.00098 15.5 3.00098L14.517 2.99826L14.466 3.00098H12V1.99898L11.9945 1.8498ZM2 4.00098H14V16.025L13.995 16.1997C13.9045 17.7602 12.6102 18.998 11.027 18.998H4.973L4.79832 18.9929C3.23776 18.9025 2 17.6082 2 16.025V4.00098ZM4.5 6.00098C4.74546 6.00098 4.94961 6.17785 4.99194 6.4111L5 6.50098V16.501C5 16.7771 4.77614 17.001 4.5 17.001C4.25454 17.001 4.05039 16.8241 4.00806 16.5909L4 16.501V6.50098C4 6.22483 4.22386 6.00098 4.5 6.00098ZM8.49194 6.4111C8.44961 6.17785 8.24546 6.00098 8 6.00098C7.72386 6.00098 7.5 6.22483 7.5 6.50098V16.501L7.50806 16.5909C7.55039 16.8241 7.75454 17.001 8 17.001C8.27614 17.001 8.5 16.7771 8.5 16.501V6.50098L8.49194 6.4111ZM11.5 6.00098C11.7455 6.00098 11.9496 6.17785 11.9919 6.4111L12 6.50098V16.501C12 16.7771 11.7761 17.001 11.5 17.001C11.2545 17.001 11.0504 16.8241 11.0081 16.5909L11 16.501V6.50098C11 6.22483 11.2239 6.00098 11.5 6.00098ZM5.997 1.00098H10.003L10.1193 1.00768C10.6154 1.06526 11 1.48663 11 1.99898V3.00098H5V1.99898L5.0067 1.88248C5.06426 1.38575 5.48539 1.00098 5.997 1.00098Z" fill="#191D21"/>
</svg>
