<svg width="24" height="24" viewBox="0 0 24 24" fill="none" xmlns="http://www.w3.org/2000/svg">
<g id="B. Digital,  Tech &#38; Docs/d. Symbols/BD270-edit | SYMBOLS, pencil, pen, edit, editar, modificar, modify, l&#195;&#161;piz, bol&#195;&#173;grafo, boli.">
<path id="Vector" fillRule="evenodd" clipRule="evenodd" d="M15.3641 3.69268C16.2445 2.81111 17.6483 2.77104 18.5772 3.57235L18.7066 3.69254L20.3072 5.29419C21.1888 6.17455 21.2288 7.57835 20.4276 8.50719L20.3075 8.63654L8.09057 20.8539C8.01555 20.9289 7.91915 20.9777 7.81569 20.9942L7.737 21.0004H3.5C3.25454 21.0004 3.05039 20.8235 3.00806 20.5903L3 20.5004V16.2634C3 16.1573 3.03371 16.0547 3.09521 15.9699L3.14645 15.9098L15.3641 3.69268ZM12.798 7.67245L4 16.4705V20.0004H7.52988L16.3279 11.2014L12.798 7.67245ZM16.182 4.30015C16.717 3.86921 17.5022 3.90236 17.9993 4.39954L19.6002 6.00143L19.6997 6.11206C20.1307 6.64713 20.0975 7.43225 19.6003 7.92943L17.035 10.494L13.505 6.965L16.0714 4.3996L16.182 4.30015Z" fill="#191D21"/>
</g>
</svg>
