<svg width="24" height="24" viewBox="0 0 24 24" fill="none" xmlns="http://www.w3.org/2000/svg">
<g id="F. Communication &#38; Social/a. Communication/FA080-email | COMMUNICATION, envelope, email, message, sobre, mensaje">
<path id="Vector" fillRule="evenodd" clipRule="evenodd" d="M18.0789 5C19.1127 5 20.0532 5.40032 20.7538 6.05436C20.7896 6.07586 20.8229 6.1035 20.8528 6.13601C20.873 6.15795 20.8908 6.18121 20.9064 6.20549C21.5315 6.85544 21.9343 7.72103 21.9926 8.67951L21.9999 8.921V15.109C21.9999 17.191 20.3652 18.8907 18.3091 18.9949L18.1089 19H5.89088C3.8089 19 2.10914 17.3653 2.00494 15.3092L1.99988 15.109V8.921C1.99988 6.82352 3.64771 5.11014 5.71914 5.0051L5.92088 5H18.0789ZM14.5199 12.642L13.3274 13.741C12.6154 14.3752 11.5628 14.4125 10.8055 13.8482L10.6672 13.7354L9.47988 12.642L3.99607 17.2927C4.46354 17.6986 5.06269 17.957 5.72099 17.9951L5.89088 18H18.1089C18.8343 18 19.4972 17.733 20.0047 17.2918L14.5199 12.642ZM3.00757 8.70749C3.04834 8.14344 3.24938 7.62371 3.56535 7.19363L8.73888 11.959L3.36423 16.5152C3.13212 16.099 2.99988 15.6195 2.99988 15.109V8.921L3.00757 8.70749ZM20.4374 7.19767L15.2619 11.96L20.6361 16.5142C20.8419 16.1448 20.9691 15.7254 20.995 15.2789L20.9999 15.109V8.921C20.9999 8.34818 20.8349 7.8138 20.5498 7.3628L20.4374 7.19767ZM5.92088 6H18.0789L18.3043 6.00857C18.8251 6.04834 19.3077 6.22475 19.7164 6.50201L12.6563 12.9997L12.5595 13.0755C12.1914 13.3281 11.6844 13.3024 11.3384 12.9942L4.28638 6.49997C4.75288 6.18435 5.31541 6 5.92088 6Z" fill="#191D21"/>
</g>
</svg>
