<svg width="24" height="24" viewBox="0 0 24 24" fill="none" xmlns="http://www.w3.org/2000/svg">
<path fillRule="evenodd" clipRule="evenodd" d="M19.8089 2.18917C19.9956 1.96914 20.3361 1.93917 20.5777 2.10915C20.7925 2.26025 20.8424 2.52197 20.7197 2.7328L20.6656 2.80916L16.9423 7.09914V7.10915L15.4098 8.87465L14.4382 9.99917L9.31472 15.9041L8.81491 16.4892L4.59748 21.3491L4.19112 21.8092C4.08125 21.9292 3.92754 21.9992 3.76276 21.9992C3.64197 21.9992 3.52117 21.9591 3.42229 21.8892C3.20748 21.738 3.15761 21.4763 3.2803 21.2655L3.33441 21.1892L7.05766 16.8892C4.90497 15.8892 3.10381 14.2691 2.04942 12.2091C1.98353 12.0692 1.98353 11.9191 2.04942 11.7891C3.85065 8.26912 7.74959 5.99917 12 5.99917C13.2106 5.99917 14.3864 6.20461 15.4967 6.55226L15.9099 6.68917L19.8089 2.18917ZM17.9198 7.58913C19.6442 8.59914 21.061 10.0391 21.9506 11.7891C22.0165 11.9191 22.0165 12.0692 21.9506 12.2091C20.1494 15.7191 16.2504 17.9892 12 17.9892C11.181 17.9892 10.3781 17.8936 9.59831 17.7278L9.21035 17.6392L9.95718 16.7791C10.6271 16.9091 11.3081 16.9892 12 16.9892C15.7342 16.9892 19.1828 15.0391 20.8413 11.9992C20.0725 10.5898 18.921 9.4157 17.5386 8.55807L17.2389 8.37917L17.9198 7.58913ZM3.15871 11.9992C4.81715 8.94918 8.26576 6.99917 12 6.99917C13.1093 6.99917 14.1746 7.18917 15.196 7.50918L14.2625 8.58913L14.0359 8.47145C13.4232 8.17297 12.742 7.99917 12 7.99917C9.57274 7.99917 7.60681 9.78914 7.60681 11.9992C7.60681 13.0891 8.09006 14.0791 8.86988 14.7992L7.74959 16.0891L7.42676 15.9422C5.61473 15.0801 4.10261 13.7181 3.15871 11.9992ZM15.8001 10.0391C16.1625 10.6192 16.3932 11.2791 16.3932 11.9992C16.3932 14.2091 14.4273 15.9992 12 15.9992C11.6573 15.9992 11.3357 15.9544 11.0184 15.8801L10.7809 15.8192L11.5387 14.9591C11.6924 14.9791 11.8462 14.9992 12 14.9992C13.8122 14.9992 15.2949 13.6491 15.2949 11.9992C15.2949 11.6872 15.2386 11.388 15.1375 11.1067L15.0533 10.8991L15.8001 10.0391ZM8.70511 11.9992C8.70511 10.3491 10.1878 8.99917 12 8.99917C12.5711 8.99917 13.0983 9.14913 13.5706 9.37917L9.56181 13.9992L9.42302 13.8505C8.9774 13.3413 8.70511 12.6991 8.70511 11.9992Z" fill="#929292"/>
</svg>
