<svg width="15" height="15" viewBox="0 0 15 15" fill="none" xmlns="http://www.w3.org/2000/svg" style="transform: scaleX(-1)">
  <path d="M9.575 2.60749L14.2812 7.29499C14.3436 7.35287 14.3778 7.43495 14.375 7.51999C14.3762 7.60473 14.3423 7.68619 14.2812 7.74499L9.575 12.4325C9.52243 12.4868 9.45058 12.5182 9.375 12.52C9.29293 12.5234 9.21332 12.4916 9.15625 12.4325C9.09709 12.3738 9.06381 12.2939 9.06381 12.2106C9.06381 12.1273 9.09709 12.0474 9.15625 11.9887L13.3131 7.82562L0.9375 7.82624C0.767323 7.82627 0.628404 7.69013 0.625 7.51999C0.625 7.3474 0.764911 7.20749 0.9375 7.20749L13.3056 7.20687L9.1375 3.05124C9.04782 2.97549 9.00816 2.85587 9.03482 2.74155C9.06148 2.62723 9.14995 2.53749 9.26389 2.50921C9.37782 2.48094 9.49798 2.51889 9.575 2.60749Z" fill="#FFFFFF " stroke="#FFFFFF " stroke-width="0.3"/>
</svg>
