<svg width="1259" height="821" viewBox="0 0 1259 821" fill="none" xmlns="http://www.w3.org/2000/svg">
<rect width="1200" height="821" fill="#F5F9FA"/>
<path fillRule="evenodd" clipRule="evenodd" d="M608.949 102.806C606.594 84.8791 590.292 71 570.533 71C549.157 71 531.827 87.2458 531.827 107.287C531.827 110.575 532.293 113.761 533.168 116.789C532.84 116.793 532.514 116.804 532.19 116.822L531.825 116.794V116.845C520.739 117.625 512 126.307 512 136.902C512 147.496 520.739 156.178 531.825 156.959V157.019H672.75V157.017H672.75C681.388 157.017 688.392 150.45 688.392 142.351C688.392 134.252 681.388 127.687 672.75 127.687H672.75V127.686L637.046 124.926C637.209 123.927 637.294 122.903 637.294 121.86C637.294 110.752 627.688 101.746 615.839 101.746C613.429 101.746 611.111 102.119 608.949 102.806Z" fill="#D9E8EF"/>
<path fillRule="evenodd" clipRule="evenodd" d="M1218.92 269.269C1217.73 260.099 1209.5 253 1199.53 253C1188.75 253 1180 261.31 1180 271.561C1180 273.243 1180.24 274.873 1180.68 276.422C1180.51 276.424 1180.35 276.43 1180.19 276.439L1180 276.424V276.45C1174.41 276.85 1170 281.291 1170 286.71C1170 292.129 1174.41 296.57 1180 296.969V297H1251.11V296.999H1251.11C1255.47 296.999 1259 293.64 1259 289.497C1259 285.355 1255.47 281.996 1251.11 281.996H1251.11V281.996L1233.09 280.584C1233.18 280.073 1233.22 279.549 1233.22 279.016C1233.22 273.334 1228.37 268.727 1222.39 268.727C1221.18 268.727 1220.01 268.918 1218.92 269.269Z" fill="#D9E8EF"/>
<path fillRule="evenodd" clipRule="evenodd" d="M219.892 178.001C223.15 153.201 245.7 134 273.032 134C302.601 134 326.573 156.475 326.573 184.2C326.573 188.748 325.929 193.156 324.718 197.345C325.173 197.351 325.624 197.366 326.072 197.391L326.576 197.352V197.422C341.912 198.502 354 210.513 354 225.17C354 239.826 341.912 251.837 326.576 252.917V253H131.637V252.997H131.636C119.688 252.997 110 243.913 110 232.709C110 221.504 119.688 212.421 131.636 212.421H131.637V212.42L181.026 208.603C180.8 207.22 180.683 205.803 180.683 204.361C180.683 188.993 193.97 176.535 210.361 176.535C213.695 176.535 216.901 177.05 219.892 178.001Z" fill="#D9E8EF"/>
<path fillRule="evenodd" clipRule="evenodd" d="M910 142C910 161.869 892.749 178 871.5 178C850.251 178 833 161.869 833 142C833 122.131 850.251 106 871.5 106C892.749 106 910 122.131 910 142Z" fill="#D9E8EF"/>
<path d="M953 160.373C953 143.598 938.504 130 920.616 130C904.082 130 890.443 141.617 888.474 156.623C886.664 156.047 884.724 155.735 882.707 155.735C872.791 155.735 864.754 163.273 864.754 172.57C864.754 173.443 864.825 174.3 864.961 175.137L835.087 177.448C827.859 177.448 822 182.942 822 189.721C822 196.501 827.859 201.996 835.087 201.996C835.087 201.996 835.088 201.996 835.088 202H919.331C937.926 202 953 186.926 953 168.331L951.851 168.42C952.6 165.857 953 163.159 953 160.373Z" fill="white"/>
<path d="M-60 302.623C-60 289.576 -48.8239 279 -35.032 279C-22.2843 279 -11.7691 288.036 -10.2511 299.706C-8.85547 299.259 -7.35996 299.016 -5.80448 299.016C1.84081 299.016 8.03711 304.879 8.03711 312.11C8.03711 312.789 7.98249 313.456 7.87725 314.107L30.91 315.904C36.4828 315.904 41 320.177 41 325.45C41 330.723 36.4828 334.997 30.91 334.997C30.91 334.997 30.9094 334.997 30.909 335H-33.813C-48.2757 335 -60 323.276 -60 308.813L-59.1145 308.882C-59.6917 306.889 -60 304.79 -60 302.623Z" fill="#D9E8EF"/>
<path fillRule="evenodd" clipRule="evenodd" d="M265 358C265 364.623 259.399 370 252.5 370C245.601 370 240 364.623 240 358C240 351.377 245.601 346 252.5 346C259.399 346 265 351.377 265 358Z" fill="#D9E8EF"/>
<path fillRule="evenodd" clipRule="evenodd" d="M987 291C987 297.623 981.399 303 974.5 303C967.601 303 962 297.623 962 291C962 284.377 967.601 279 974.5 279C981.399 279 987 284.377 987 291Z" fill="#D9E8EF"/>
<path fillRule="evenodd" clipRule="evenodd" d="M1074.37 437.429C1076.69 419.715 1092.77 406 1112.26 406C1133.35 406 1150.44 422.053 1150.44 441.857C1150.44 445.106 1149.98 448.254 1149.12 451.247C1149.44 451.251 1149.76 451.262 1150.08 451.279L1150.44 451.251V451.302C1161.38 452.073 1170 460.652 1170 471.121C1170 481.59 1161.38 490.169 1150.44 490.941V491H1011.43V490.998H1011.43C1002.91 490.998 996 484.509 996 476.506C996 468.503 1002.91 462.015 1011.43 462.015H1011.43V462.015L1046.65 459.288C1046.49 458.3 1046.41 457.288 1046.41 456.258C1046.41 445.281 1055.88 436.382 1067.57 436.382C1069.95 436.382 1072.23 436.75 1074.37 437.429Z" fill="#D9E8EF"/>
<path fillRule="evenodd" clipRule="evenodd" d="M114.949 426.806C112.594 408.879 96.2917 395 76.5333 395C55.1571 395 37.8273 411.246 37.8273 431.287C37.8273 434.575 38.2934 437.761 39.1683 440.789C38.8396 440.793 38.5138 440.804 38.1899 440.822L37.8254 440.794V440.845C26.739 441.625 18.0002 450.307 18.0002 460.902C18.0002 471.496 26.739 480.178 37.8254 480.959V481.019H178.75V481.017H178.75C187.388 481.017 194.392 474.45 194.392 466.351C194.392 458.252 187.388 451.687 178.75 451.687H178.75V451.686L143.046 448.926C143.209 447.927 143.294 446.903 143.294 445.86C143.294 434.752 133.688 425.746 121.839 425.746C119.429 425.746 117.111 426.119 114.949 426.806Z" fill="white"/>
<path d="M436.599 490.624C427.105 490.624 419.195 483.346 418.407 473.884L401.648 272.772C400.761 262.128 409.16 253 419.84 253L751.519 253C761.014 253 768.923 260.278 769.712 269.739L786.471 470.852C787.358 481.496 778.959 490.624 768.279 490.624L436.599 490.624Z" fill="#9E3667"/>
<path d="M448.481 490.624C438.986 490.624 431.077 483.346 430.288 473.884L413.529 272.772C412.642 262.128 421.041 253 431.721 253L763.401 253C772.895 253 780.805 260.278 781.593 269.739L798.353 470.852C799.239 481.496 790.84 490.624 780.16 490.624L448.481 490.624Z" fill="#D9E8EF"/>
<path d="M453.148 480.723C446.82 480.723 441.547 475.872 441.02 469.565L424.863 276.084C424.271 268.988 429.87 262.901 436.991 262.901L758.732 262.901C765.061 262.901 770.334 267.752 770.861 274.059L787.018 467.54C787.61 474.636 782.011 480.723 774.89 480.723L453.148 480.723Z" fill="white"/>
<path d="M593.27 439.391C592.854 439.311 592.431 439.271 592.007 439.271C589.162 439.271 587.714 440.771 587.714 443.414C587.714 445.933 589.069 447.373 591.1 447.373C592.208 447.373 592.87 446.938 593.3 446.234L593.393 447.19H594.947V436.692C594.392 436.692 593.793 436.736 593.27 436.916V439.391ZM593.27 445.446C592.788 445.817 592.191 446.018 591.577 446.016C590.068 446.016 589.438 444.936 589.438 443.406C589.438 441.697 590.238 440.677 591.916 440.677C592.371 440.682 592.825 440.733 593.27 440.827V445.446ZM553.619 446.289L553.712 447.189H555.265V439.69C554.374 439.391 553.466 439.265 552.357 439.265C549.51 439.265 548.064 440.765 548.064 443.408C548.064 445.928 549.419 447.367 551.449 447.367C552.521 447.368 553.183 446.954 553.619 446.289ZM549.783 443.409C549.783 441.73 550.598 440.68 552.352 440.68C552.759 440.676 553.165 440.706 553.567 440.771V445.48C553.096 445.835 552.516 446.025 551.921 446.019C550.413 446.019 549.783 444.936 549.783 443.409ZM562.23 447.189H563.923V442.149C563.923 440.335 563.015 439.271 560.183 439.271C559.368 439.271 558.183 439.435 557.106 439.696V447.194H558.799V440.8C559.241 440.726 559.688 440.686 560.137 440.68C561.83 440.68 562.23 441.25 562.23 442.435V447.189ZM532.147 439.465C532.123 438.909 531.961 438.366 531.675 437.884L529.111 433.554C528.918 433.229 528.78 432.875 528.704 432.507L528.595 432.688C528.283 433.214 528.118 433.812 528.118 434.42C528.118 435.028 528.283 435.625 528.595 436.152L530.647 439.616C530.959 440.143 531.123 440.74 531.123 441.348C531.123 441.956 530.959 442.553 530.647 443.08L530.538 443.261C530.462 442.893 530.325 442.539 530.133 442.214L528.254 439.042L527.055 437.018C526.862 436.693 526.725 436.339 526.648 435.971L526.539 436.152C526.229 436.677 526.065 437.272 526.064 437.878C526.062 438.484 526.224 439.079 526.533 439.605L528.592 443.08C528.903 443.607 529.067 444.204 529.067 444.812C529.067 445.42 528.903 446.017 528.592 446.544L528.483 446.725C528.406 446.357 528.269 446.003 528.076 445.678L525.512 441.349C525.173 440.778 525.009 440.125 525.038 439.466C522.293 440.165 520.397 441.65 520.397 443.369C520.397 445.76 524.065 447.699 528.59 447.699C533.114 447.699 536.782 445.76 536.782 443.369C536.795 441.649 534.899 440.164 532.153 439.465H532.147ZM569.735 447.128C569.826 446.667 569.892 446.202 569.935 445.735C569.511 445.885 569.063 445.961 568.612 445.959C567.796 445.959 567.304 445.584 567.304 444.61V440.935H569.828C569.906 440.469 569.957 439.998 569.982 439.526H567.309V436.692C566.736 436.69 566.166 436.771 565.616 436.931V444.804C565.616 446.634 566.663 447.368 568.31 447.368C568.798 447.378 569.284 447.297 569.741 447.128H569.735ZM542.995 445.929C542.026 445.921 541.069 445.723 540.18 445.345C540.003 445.832 539.904 446.342 539.886 446.859C540.748 447.249 541.779 447.429 543.041 447.429C545.657 447.429 546.996 446.245 546.996 444.519C546.996 443.065 546.18 442.21 544.226 441.401L543.394 441.055C542.318 440.605 541.717 440.156 541.717 439.376C541.717 438.596 542.333 438.07 543.671 438.07C544.532 438.079 545.385 438.226 546.196 438.506C546.366 438.021 546.469 437.517 546.503 437.006C545.597 436.707 544.645 436.56 543.688 436.571C541.194 436.571 539.982 437.666 539.982 439.376C539.982 440.969 540.963 441.76 542.413 442.375L543.198 442.705C544.645 443.32 545.229 443.725 545.229 444.595C545.229 445.465 544.427 445.929 542.995 445.929ZM607.904 439.271C606.95 439.271 605.734 439.45 605.011 439.696V447.194H606.7V440.771C607.113 440.711 607.53 440.68 607.947 440.68C608.374 440.676 608.8 440.696 609.224 440.74C609.331 440.277 609.382 439.804 609.378 439.33C608.888 439.285 608.396 439.265 607.904 439.271ZM582.617 439.271C581.802 439.271 580.617 439.435 579.541 439.696V447.194H581.232V440.8C581.675 440.726 582.123 440.686 582.572 440.68C584.264 440.68 584.664 441.25 584.664 442.435V447.189H586.357V442.149C586.36 440.335 585.452 439.271 582.621 439.271H582.617ZM600.083 439.271C597.391 439.271 596.329 441.04 596.329 443.274C596.329 445.839 597.698 447.368 600.53 447.368C601.438 447.368 602.253 447.234 603.023 446.889C603.132 446.394 603.222 445.827 603.284 445.389C602.433 445.764 601.51 445.958 600.576 445.959C599.068 445.959 598.268 445.314 598.052 443.98H603.453C603.516 443.558 603.547 443.132 603.546 442.705C603.549 440.815 602.503 439.271 600.086 439.271H600.083ZM598.025 442.599C598.164 441.324 598.795 440.65 599.995 440.65C601.164 440.65 601.841 441.369 601.841 442.599H598.025ZM577.696 439.69C576.804 439.391 575.896 439.265 574.788 439.265C571.941 439.265 570.495 440.765 570.495 443.408C570.495 445.928 571.849 447.367 573.88 447.367C574.957 447.367 575.624 446.942 576.051 446.288L576.142 447.188H577.696V439.69ZM576.004 445.48C575.533 445.835 574.953 446.025 574.358 446.019C572.849 446.019 572.218 444.939 572.218 443.409C572.218 441.73 573.034 440.68 574.788 440.68C575.195 440.676 575.602 440.706 576.004 440.771V445.48Z" fill="#65A5BF"/>
<path d="M617.852 447.771C614.614 447.771 612.879 445.417 612.879 442.024C612.879 438.555 614.692 436.262 617.836 436.262C618.889 436.262 619.757 436.448 620.376 436.804C620.345 437.315 620.283 437.656 620.159 437.982C619.571 437.641 618.765 437.455 617.913 437.455C615.637 437.455 614.273 439.035 614.273 442.04C614.273 444.952 615.698 446.578 617.944 446.578C618.858 446.578 619.71 446.392 620.345 446.067C620.314 446.47 620.252 446.888 620.128 447.399C619.416 447.632 618.672 447.771 617.852 447.771Z" fill="#65A5BF"/>
<path d="M625.234 447.74C622.818 447.74 621.455 446.036 621.455 443.372C621.455 440.677 622.802 438.957 625.234 438.957C627.666 438.957 628.998 440.677 628.998 443.372C628.998 446.052 627.635 447.74 625.234 447.74ZM625.234 446.671C626.86 446.671 627.666 445.432 627.666 443.372C627.666 441.296 626.876 440.026 625.234 440.026C623.577 440.026 622.802 441.296 622.802 443.372C622.802 445.432 623.608 446.671 625.234 446.671Z" fill="#65A5BF"/>
<path d="M635.037 438.957C636.834 438.957 637.748 440.057 637.748 441.869V447.539H636.447V442.272C636.447 440.894 635.982 440.026 634.557 440.026C633.674 440.026 632.931 440.537 632.481 441.048V447.539H631.18V439.159H632.389L632.466 440.46C633.07 439.469 633.86 438.957 635.037 438.957Z" fill="#65A5BF"/>
<path d="M642.544 447.74C641.599 447.74 640.592 447.523 639.926 447.136C639.957 446.733 640.019 446.392 640.112 446.052C640.84 446.47 641.816 446.671 642.482 446.671C643.737 446.671 644.434 446.206 644.434 445.401C644.434 444.596 643.923 444.27 642.947 443.976L642.203 443.744C640.949 443.372 639.988 442.675 639.988 441.265C639.988 439.809 641.072 438.957 642.993 438.957C643.907 438.957 644.728 439.097 645.441 439.36C645.41 439.654 645.363 440.057 645.27 440.429C644.558 440.181 643.907 440.026 643.071 440.026C641.909 440.026 641.289 440.46 641.289 441.219C641.289 441.947 641.769 442.35 642.807 442.675L643.551 442.923C644.96 443.372 645.75 444.038 645.75 445.308C645.75 446.718 644.62 447.74 642.544 447.74Z" fill="#65A5BF"/>
<path d="M653.16 439.159H654.461V447.539H653.253L653.175 446.268C652.571 447.229 651.766 447.74 650.588 447.74C648.792 447.74 647.893 446.64 647.893 444.828V439.159H649.194V444.425C649.194 445.804 649.659 446.671 651.069 446.671C651.967 446.671 652.695 446.16 653.16 445.649V439.159Z" fill="#65A5BF"/>
<path d="M666.305 438.957C668.117 438.957 669.031 440.057 669.031 441.854V447.539H667.73V442.241C667.73 440.894 667.265 440.026 665.809 440.026C665.019 440.026 664.306 440.444 663.733 441.017C663.78 441.281 663.811 441.56 663.811 441.869V447.539H662.51V442.272C662.51 440.894 662.045 440.026 660.62 440.026C659.737 440.026 658.994 440.537 658.544 441.048V447.539H657.243V439.159H658.451L658.529 440.46C659.133 439.469 659.923 438.957 661.1 438.957C662.37 438.957 663.207 439.515 663.578 440.491C664.229 439.5 664.988 438.957 666.305 438.957Z" fill="#65A5BF"/>
<path d="M678.178 442.69C678.178 443.031 678.147 443.573 678.101 443.79H672.478C672.633 445.835 673.655 446.671 675.328 446.671C676.195 446.671 677.094 446.423 677.868 445.943C677.853 446.315 677.76 446.842 677.667 447.151C676.985 447.523 676.133 447.74 675.251 447.74C672.447 447.74 671.115 446.036 671.115 443.294C671.115 440.863 672.246 438.957 674.817 438.957C677.078 438.957 678.178 440.506 678.178 442.69ZM674.77 440.026C673.392 440.026 672.617 441.048 672.478 442.721H676.846V442.675C676.846 441.141 676.211 440.026 674.77 440.026Z" fill="#65A5BF"/>
<path d="M683.902 438.973C684.227 438.973 684.614 439.019 684.893 439.112C684.893 439.438 684.862 439.918 684.754 440.258C684.444 440.181 684.057 440.15 683.731 440.15C683.019 440.15 682.244 440.444 681.733 441.095V447.539H680.432V439.159H681.656L681.718 440.413C682.182 439.515 682.941 438.973 683.902 438.973Z" fill="#65A5BF"/>
<path d="M537.487 373.991V336.093C539.787 335.436 542.252 335.107 544.497 335.107V373.991H537.487ZM566.15 346.663H573.161V372.896C569.71 373.936 565.767 374.648 562.043 374.648C552.897 374.648 550.049 370.65 550.049 364.736V346.663H557.059V363.969C557.059 367.584 558.483 369.117 562.207 369.117C563.576 369.117 564.891 368.953 566.15 368.679V346.663ZM589.888 346.006C598.706 346.006 603.416 350.77 603.416 359.916C603.416 368.788 598.925 374.648 589.231 374.648C588.136 374.648 587.04 374.594 586 374.484V385.602H578.99V348.196C582.385 346.772 586.219 346.006 589.888 346.006ZM589.395 368.953C594.543 368.953 596.296 365.393 596.296 360.135C596.296 354.549 594.379 351.646 589.56 351.646C588.355 351.646 587.15 351.811 586 352.139V368.624C587.04 368.843 588.136 368.953 589.395 368.953ZM611.376 342.117C609.021 342.117 607.268 340.419 607.268 338.01C607.268 335.6 609.021 333.902 611.376 333.902C613.621 333.902 615.374 335.6 615.374 338.01C615.374 340.365 613.621 342.117 611.376 342.117ZM607.871 373.991V346.663H614.881V373.991H607.871ZM627.443 364.681C627.443 367.638 628.538 368.953 631.057 368.953C632.207 368.953 633.631 368.624 634.727 368.076C634.562 369.993 634.343 371.91 633.96 373.663C632.481 374.429 630.893 374.648 629.195 374.648C623.554 374.648 620.433 371.691 620.433 365.393V339.105C622.733 338.448 625.088 338.174 627.443 338.174V346.663H635C634.891 348.525 634.727 350.168 634.398 352.194H627.443V364.681ZM651.058 346.006C654.891 346.006 658.232 346.498 661.299 347.375V373.991H654.891L654.453 370.158C653.139 373.005 650.948 374.648 647.607 374.648C641.528 374.648 637.202 370.486 637.202 360.519C637.202 351.701 640.981 346.006 651.058 346.006ZM649.743 369.007C651.77 369.007 653.248 368.296 654.344 367.2V351.975C653.358 351.756 652.263 351.646 650.893 351.646C645.745 351.646 644.321 355.097 644.321 360.354C644.321 366.598 646.238 369.007 649.743 369.007Z" fill="#FA4646"/>
<path d="M533.352 490.624H638.302L634.107 510.027C631.828 520.568 635.763 531.486 644.243 538.149H588.797V559.931H557.447C542.962 559.931 530.006 550.922 524.962 537.343C522.071 529.559 522.071 520.995 524.962 513.211L533.352 490.624Z" fill="#D9E8EF"/>
<path d="M563.055 559.931H677.341C677.341 547.901 667.589 538.148 655.559 538.148H584.837C572.807 538.148 563.055 547.901 563.055 559.931Z" fill="white"/>
<path d="M533.352 490.624H638.303L601.433 493.976C575.33 496.349 549.721 502.559 525.432 512.406L533.352 490.624Z" fill="#8CBBCF"/>
<path d="M434.179 560L796.246 560" stroke="#B2D2DF" stroke-width="1.52129"/>
<path d="M750.751 271.59C747.309 271.59 744.603 274.531 744.889 277.96L750.173 341.369C750.427 344.418 752.975 346.763 756.035 346.763H805.243C808.685 346.763 811.391 343.822 811.105 340.392L806.485 284.952C805.856 277.399 799.542 271.59 791.963 271.59H750.751Z" fill="white" stroke="#8CBBCF" stroke-width="0.82078"/>
<path d="M757.276 314.694L757.612 314.516C759.537 313.496 761.786 313.278 763.871 313.909V313.909C765.554 314.419 767.356 314.378 769.014 313.792L772.019 312.73C773.255 312.294 774.627 312.446 775.784 313.062C775.891 313.118 775.999 313.175 776.107 313.232C777.895 314.173 779.446 314.478 781.136 313.369V313.369C782.578 312.422 785.054 311.713 786.578 312.521L788.237 313.4C789.793 314.225 791.623 314.36 793.284 313.773L794.17 313.46C796.674 312.576 799.456 313.042 801.534 314.694V314.694" stroke="#B2D2DF" stroke-width="1.09437"/>
<path d="M757.679 323.707L758.014 323.529C759.939 322.509 762.189 322.291 764.273 322.922V322.922C765.957 323.432 767.758 323.391 769.417 322.805L772.421 321.743C773.658 321.306 775.029 321.458 776.186 322.074C776.293 322.131 776.401 322.188 776.509 322.245C778.298 323.186 779.849 323.491 781.538 322.382V322.382C782.98 321.435 785.456 320.726 786.98 321.533L788.639 322.412C790.195 323.237 792.026 323.373 793.686 322.786L794.573 322.473C797.076 321.588 799.858 322.054 801.936 323.707V323.707" stroke="#B2D2DF" stroke-width="1.09437"/>
<path d="M758.081 332.719L758.429 332.51C760.071 331.521 762.068 331.31 763.881 331.934V331.934C765.354 332.44 766.96 332.4 768.405 331.82L771.032 330.765C772.119 330.328 773.357 330.476 774.359 331.082C774.439 331.13 774.519 331.178 774.599 331.226C776.176 332.171 777.614 332.487 779.087 331.387V331.387C780.323 330.465 782.572 329.767 783.894 330.563L785.795 331.708C786.741 332.277 787.965 332.017 788.597 331.112V331.112C789.301 330.104 790.744 329.976 791.613 330.846L791.866 331.098C792.834 332.066 794.313 332.306 795.538 331.694V331.694C796.476 331.225 797.58 331.225 798.517 331.694L798.611 331.741C799.811 332.34 801.246 332.211 802.319 331.406L804.109 330.064" stroke="#B2D2DF" stroke-width="1.09437"/>
<path d="M789.032 271.262H792.45C799.666 271.262 805.729 276.688 806.526 283.86L806.896 287.195H796.653C793.322 287.195 790.524 284.69 790.156 281.38L789.032 271.262Z" fill="#B2D2DF"/>
<path d="M380.704 371.512C376.614 371.512 373.398 375.007 373.738 379.083L380.017 454.431C380.319 458.054 383.347 460.84 386.983 460.84H445.457C449.546 460.84 452.762 457.345 452.423 453.27L446.933 387.391C446.185 378.416 438.682 371.512 429.676 371.512H380.704Z" fill="white" stroke="#8CBBCF" stroke-width="0.975326"/>
<path d="M388.458 422.733L388.857 422.522C391.144 421.309 393.817 421.05 396.294 421.8V421.8C398.294 422.406 400.436 422.357 402.406 421.661L405.977 420.4C407.446 419.881 409.075 420.061 410.451 420.793C410.578 420.861 410.706 420.928 410.834 420.996C412.959 422.114 414.802 422.477 416.81 421.159V421.159C418.523 420.034 421.466 419.191 423.277 420.15L425.248 421.195C427.097 422.175 429.272 422.336 431.246 421.639L432.299 421.267C435.273 420.216 438.579 420.77 441.049 422.733V422.733" stroke="#B2D2DF" stroke-width="1.30043"/>
<path d="M388.937 433.443L389.335 433.231C391.622 432.019 394.296 431.76 396.773 432.51V432.51C398.773 433.116 400.914 433.067 402.885 432.371L406.455 431.109C407.924 430.59 409.554 430.771 410.929 431.503C411.056 431.57 411.184 431.638 411.312 431.706C413.438 432.824 415.281 433.187 417.288 431.868V431.868C419.002 430.743 421.944 429.9 423.755 430.86L425.726 431.905C427.575 432.885 429.751 433.046 431.724 432.349L432.777 431.976C435.752 430.925 439.058 431.479 441.527 433.443V433.443" stroke="#B2D2DF" stroke-width="1.30043"/>
<path d="M389.414 444.152L389.827 443.904C391.779 442.728 394.152 442.477 396.306 443.219V443.219C398.056 443.821 399.965 443.773 401.682 443.083L404.804 441.83C406.095 441.311 407.567 441.486 408.758 442.207C408.852 442.264 408.947 442.321 409.042 442.378C410.917 443.501 412.625 443.877 414.375 442.57V442.57C415.844 441.473 418.517 440.644 420.087 441.589L422.347 442.95C423.47 443.627 424.925 443.317 425.676 442.242V442.242C426.512 441.044 428.227 440.893 429.26 441.926L429.56 442.226C430.711 443.376 432.469 443.661 433.924 442.934V442.934C435.038 442.377 436.35 442.377 437.464 442.934L437.576 442.989C439.001 443.702 440.707 443.548 441.982 442.592L444.109 440.997" stroke="#B2D2DF" stroke-width="1.30043"/>
<path d="M426.193 371.123H430.255C438.83 371.123 446.034 377.571 446.981 386.094L447.421 390.056H435.249C431.291 390.056 427.966 387.08 427.529 383.146L426.193 371.123Z" fill="#B2D2DF"/>
</svg>
