<svg width="80" height="31" viewBox="0 0 80 31" fill="none" xmlns="http://www.w3.org/2000/svg">
<path d="M0.478055 24V2.112C1.56605 1.792 3.29405 1.568 4.63805 1.568V20.384H12.5741C12.5741 21.44 12.4141 23.008 12.2221 24H0.478055ZM23.4313 8.032H27.5273V23.36C25.5113 23.968 23.2073 24.384 21.0313 24.384C15.6873 24.384 14.0233 22.048 14.0233 18.592V8.032H18.1193V18.144C18.1193 20.256 18.9513 21.152 21.1273 21.152C21.9273 21.152 22.6953 21.056 23.4313 20.896V8.032ZM37.3013 7.648C42.4533 7.648 45.2053 10.432 45.2053 15.776C45.2053 20.96 42.5813 24.384 36.9173 24.384C36.2773 24.384 35.6373 24.352 35.0293 24.288V30.784H30.9333V8.928C32.9173 8.096 35.1573 7.648 37.3013 7.648ZM37.0133 21.056C40.0213 21.056 41.0453 18.976 41.0453 15.904C41.0453 12.64 39.9253 10.944 37.1093 10.944C36.4053 10.944 35.7013 11.04 35.0293 11.232V20.864C35.6373 20.992 36.2773 21.056 37.0133 21.056ZM49.8563 5.376C48.4803 5.376 47.4563 4.384 47.4563 2.976C47.4563 1.568 48.4803 0.575998 49.8563 0.575998C51.1683 0.575998 52.1923 1.568 52.1923 2.976C52.1923 4.352 51.1683 5.376 49.8563 5.376ZM47.8083 24V8.032H51.9043V24H47.8083ZM59.2443 18.56C59.2443 20.288 59.8843 21.056 61.3563 21.056C62.0283 21.056 62.8603 20.864 63.5003 20.544C63.4043 21.664 63.2763 22.784 63.0523 23.808C62.1883 24.256 61.2603 24.384 60.2683 24.384C56.9723 24.384 55.1483 22.656 55.1483 18.976V3.616C56.4923 3.232 57.8683 3.072 59.2443 3.072V8.032H63.6603C63.5963 9.12 63.5003 10.08 63.3083 11.264H59.2443V18.56ZM73.0426 7.648C75.2826 7.648 77.2346 7.936 79.0266 8.448V24H75.2826L75.0266 21.76C74.2586 23.424 72.9786 24.384 71.0266 24.384C67.4746 24.384 64.9466 21.952 64.9466 16.128C64.9466 10.976 67.1546 7.648 73.0426 7.648ZM72.2746 21.088C73.4586 21.088 74.3226 20.672 74.9626 20.032V11.136C74.3866 11.008 73.7466 10.944 72.9466 10.944C69.9386 10.944 69.1066 12.96 69.1066 16.032C69.1066 19.68 70.2266 21.088 72.2746 21.088Z" fill="#EC0000"/>
</svg>
