<svg width="20" height="20" viewBox="0 0 20 20" fill="none" xmlns="http://www.w3.org/2000/svg">
<path d="M15.4167 9.58317H10.4167V4.58317C10.4167 4.35305 10.2301 4.1665 10 4.1665C9.76989 4.1665 9.58334 4.35305 9.58334 4.58317V9.58317H4.58334C4.35322 9.58317 4.16667 9.76972 4.16667 9.99984C4.16667 10.23 4.35322 10.4165 4.58334 10.4165H9.58334V15.4165C9.58334 15.6466 9.76989 15.8332 10 15.8332C10.2301 15.8332 10.4167 15.6466 10.4167 15.4165V10.4165H15.4167C15.6468 10.4165 15.8333 10.23 15.8333 9.99984C15.8333 9.76972 15.6468 9.58317 15.4167 9.58317Z" fill="#EC0000"/>
<mask id="mask0_4061_51217" style="mask-type:luminance" maskUnits="userSpaceOnUse" x="4" y="4" width="12" height="12">
<path d="M15.4167 9.58317H10.4167V4.58317C10.4167 4.35305 10.2301 4.1665 10 4.1665C9.76989 4.1665 9.58334 4.35305 9.58334 4.58317V9.58317H4.58334C4.35322 9.58317 4.16667 9.76972 4.16667 9.99984C4.16667 10.23 4.35322 10.4165 4.58334 10.4165H9.58334V15.4165C9.58334 15.6466 9.76989 15.8332 10 15.8332C10.2301 15.8332 10.4167 15.6466 10.4167 15.4165V10.4165H15.4167C15.6468 10.4165 15.8333 10.23 15.8333 9.99984C15.8333 9.76972 15.6468 9.58317 15.4167 9.58317Z" fill="white"/>
</mask>
<g mask="url(#mask0_4061_51217)">
</g>
</svg>
