<svg width="141" height="43" viewBox="0 0 141 43" fill="none" xmlns="http://www.w3.org/2000/svg">
<path d="M115.184 10.8803C114.527 10.7547 113.859 10.6911 113.189 10.6906C108.691 10.6906 106.403 13.0614 106.403 17.239C106.403 21.2217 108.544 23.4968 111.754 23.4968C113.506 23.4968 114.552 22.8101 115.232 21.6969L115.379 23.208H117.835V6.61384C116.958 6.61384 116.011 6.68436 115.184 6.96812V10.8803ZM115.184 20.451C114.423 21.0381 113.479 21.356 112.508 21.3527C110.124 21.3527 109.128 19.6451 109.128 17.2272C109.128 14.5256 110.393 12.9137 113.044 12.9137C113.764 12.9219 114.481 13.0013 115.184 13.1504V20.451ZM52.5114 21.7842L52.6578 23.2064H55.1128V11.3538C53.7036 10.8803 52.2685 10.6822 50.5164 10.6822C46.0164 10.6822 43.7302 13.053 43.7302 17.2306C43.7302 21.2133 45.8717 23.4884 49.0813 23.4884C50.7748 23.4901 51.8223 22.8353 52.5114 21.7842ZM46.4471 17.2322C46.4471 14.5776 47.7357 12.9187 50.5078 12.9187C51.1511 12.9111 51.7939 12.9588 52.4287 13.0614V20.5047C51.6843 21.0655 50.768 21.366 49.8273 21.3577C47.4429 21.3577 46.4471 19.6451 46.4471 17.2322ZM66.1216 23.2064H68.7972V15.2409C68.7972 12.373 67.362 10.6906 62.8862 10.6906C61.5975 10.6906 59.7248 10.9509 58.0227 11.3622V23.2147H60.6982V13.1085C61.3971 12.9904 62.1046 12.927 62.8138 12.9187C65.4893 12.9187 66.1216 13.8187 66.1216 15.6925V23.2064ZM18.5719 10.9979C18.5338 10.1186 18.2778 9.26138 17.826 8.49942L13.7722 1.65388C13.4672 1.14027 13.2502 0.581654 13.1296 0L12.9573 0.28544C12.4639 1.1177 12.2041 2.06195 12.2041 3.02316C12.2041 3.98436 12.4639 4.92861 12.9573 5.76087L16.2013 11.2363C16.6939 12.0688 16.9532 13.013 16.9532 13.974C16.9532 14.9351 16.6939 15.8792 16.2013 16.7117L16.0291 16.9972C15.9083 16.4158 15.6919 15.8573 15.3882 15.3433L12.418 10.3296L10.523 7.12931C10.218 6.6157 10.0009 6.05708 9.88034 5.47543L9.70806 5.76087C9.21709 6.59053 8.95778 7.53109 8.95597 8.48885C8.95415 9.4466 9.2099 10.3881 9.69772 11.2195L12.9521 16.7117C13.4447 17.5443 13.704 18.4884 13.704 19.4494C13.704 20.4105 13.4447 21.3546 12.9521 22.1872L12.7798 22.4726C12.6592 21.8909 12.4422 21.3323 12.1372 20.8187L8.08345 13.9749C7.54902 13.0725 7.28965 12.0404 7.33574 10.9996C2.99598 12.1044 0 14.4517 0 17.1684C0 20.948 5.79727 24.0123 12.9487 24.0123C20.1001 24.0123 25.8973 20.948 25.8973 17.1684C25.918 14.45 22.922 12.1027 18.5806 10.9979H18.5719ZM77.9849 23.1106C78.1279 22.382 78.2332 21.6467 78.3002 20.9077C77.6299 21.1449 76.9218 21.2648 76.2087 21.262C74.92 21.262 74.1413 20.6693 74.1413 19.1296V13.3217H78.1314C78.2545 12.5839 78.3356 11.8401 78.3743 11.0936H74.1499V6.61384C73.2439 6.61162 72.3425 6.73891 71.4744 6.99162V19.4369C71.4744 22.3299 73.1283 23.4901 75.7315 23.4901C76.5034 23.5054 77.2712 23.3766 77.9935 23.1106H77.9849ZM35.7191 21.215C34.187 21.2029 32.6733 20.8887 31.2691 20.2915C30.989 21.0611 30.8321 21.8681 30.8039 22.6842C32.1667 23.3021 33.7965 23.5858 35.7915 23.5858C39.9262 23.5858 42.0418 21.7137 42.0418 18.9869C42.0418 16.6882 40.7532 15.3366 37.6642 14.0571L36.3497 13.5114C34.6475 12.7995 33.6982 12.0893 33.6982 10.8568C33.6982 9.6244 34.6716 8.79326 36.7873 8.79326C38.1471 8.80653 39.4954 9.03915 40.7773 9.48168C41.0467 8.71597 41.2101 7.91866 41.2631 7.11084C39.8304 6.638 38.3256 6.40578 36.8131 6.4241C32.8713 6.4241 30.9555 8.15354 30.9555 10.8568C30.9555 13.3754 32.5061 14.6247 34.7991 15.5968L36.0396 16.119C38.3257 17.0912 39.2492 17.7309 39.2492 19.1061C39.2492 20.4812 37.9812 21.215 35.7191 21.215ZM138.316 10.6906C136.807 10.6906 134.886 10.9744 133.742 11.3622V23.2147H136.412V13.0614C137.065 12.9664 137.724 12.9187 138.383 12.9187C139.058 12.9119 139.732 12.9433 140.402 13.0128C140.571 12.2816 140.652 11.534 140.645 10.7846C139.871 10.7132 139.094 10.6818 138.316 10.6906ZM98.3469 10.6906C97.0582 10.6906 95.1855 10.9509 93.4834 11.3622V23.2147H96.1572V13.1085C96.8567 12.9905 97.5647 12.927 98.2745 12.9187C100.95 12.9187 101.582 13.8187 101.582 15.6925V23.2064H104.258V15.2409C104.263 12.373 102.828 10.6906 98.352 10.6906H98.3469ZM125.953 10.6906C121.698 10.6906 120.02 13.4879 120.02 17.019C120.02 21.0723 122.184 23.4901 126.66 23.4901C128.095 23.4901 129.383 23.2769 130.6 22.7329C130.772 21.9504 130.915 21.0538 131.013 20.362C129.668 20.9539 128.208 21.2607 126.732 21.262C124.349 21.262 123.085 20.2428 122.744 18.1339H131.28C131.38 17.4667 131.428 16.7932 131.427 16.119C131.432 13.132 129.778 10.6906 125.958 10.6906H125.953ZM122.701 15.9511C122.919 13.9362 123.917 12.87 125.814 12.87C127.662 12.87 128.732 14.0068 128.732 15.9511H122.701ZM90.5684 11.3538C89.1574 10.8803 87.7223 10.6822 85.9719 10.6822C81.4719 10.6822 79.1857 13.053 79.1857 17.2306C79.1857 21.2133 81.3255 23.4884 84.5368 23.4884C86.2389 23.4884 87.2933 22.8168 87.9669 21.7825L88.1116 23.2047H90.5684V11.3538ZM87.8928 20.5047C87.1485 21.0655 86.2322 21.366 85.2914 21.3577C82.907 21.3577 81.9095 19.6501 81.9095 17.2322C81.9095 14.5776 83.1982 12.9187 85.9719 12.9187C86.6152 12.9112 87.2581 12.959 87.8928 13.0614V20.5047Z" fill="#FF3E6C"/>
<path d="M37.0014 42.7522C37.8044 42.7522 38.5317 42.6158 39.2287 42.3885C39.3499 41.8885 39.4105 41.4794 39.4408 41.0855C38.8196 41.4036 37.9862 41.5855 37.0923 41.5855C34.8952 41.5855 33.5012 39.9945 33.5012 37.1459C33.5012 34.2064 34.8346 32.6609 37.062 32.6609C37.8953 32.6609 38.6832 32.8427 39.259 33.1761C39.3802 32.8579 39.4408 32.5245 39.4712 32.0245C38.8651 31.676 38.0166 31.4942 36.9862 31.4942C33.9103 31.4942 32.1375 33.7367 32.1375 37.1308C32.1375 40.4491 33.8346 42.7522 37.0014 42.7522ZM44.2231 42.7219C46.5717 42.7219 47.9051 41.0703 47.9051 38.449C47.9051 35.8125 46.602 34.1307 44.2231 34.1307C41.8442 34.1307 40.526 35.8125 40.526 38.449C40.526 41.0552 41.8594 42.7219 44.2231 42.7219ZM44.2231 41.6764C42.6321 41.6764 41.8442 40.4642 41.8442 38.449C41.8442 36.4186 42.6018 35.1761 44.2231 35.1761C45.8292 35.1761 46.602 36.4186 46.602 38.449C46.602 40.4642 45.8141 41.6764 44.2231 41.6764ZM53.8127 34.1307C52.6612 34.1307 51.8884 34.6307 51.2975 35.6004L51.2217 34.3276H50.0398V42.5249H51.3126V36.1762C51.752 35.6762 52.4793 35.1761 53.343 35.1761C54.737 35.1761 55.1915 36.0247 55.1915 37.3732V42.5249H56.4643V36.9792C56.4643 35.2065 55.5703 34.1307 53.8127 34.1307ZM61.1559 42.7219C63.1863 42.7219 64.2924 41.7218 64.2924 40.343C64.2924 39.1005 63.5196 38.449 62.1408 38.0096L61.4135 37.7672C60.3983 37.449 59.9286 37.055 59.9286 36.3429C59.9286 35.6004 60.5347 35.1761 61.6711 35.1761C62.4893 35.1761 63.1257 35.3277 63.8227 35.5701C63.9136 35.2065 63.959 34.8125 63.9893 34.5246C63.2923 34.267 62.4893 34.1307 61.5953 34.1307C59.7165 34.1307 58.6558 34.964 58.6558 36.3883C58.6558 37.7672 59.5952 38.449 60.8226 38.8126L61.5499 39.0399C62.5044 39.3278 63.0045 39.646 63.0045 40.4339C63.0045 41.2218 62.3226 41.6764 61.0953 41.6764C60.4438 41.6764 59.4892 41.4794 58.777 41.0703C58.6861 41.4036 58.6255 41.737 58.5952 42.1309C59.2467 42.5098 60.2316 42.7219 61.1559 42.7219ZM71.5404 34.3276V40.6763C71.0858 41.1764 70.3737 41.6764 69.4949 41.6764C68.116 41.6764 67.6615 40.8279 67.6615 39.4793V34.3276H66.3887V39.8733C66.3887 41.6461 67.2675 42.7219 69.0252 42.7219C70.1767 42.7219 70.9646 42.2219 71.5556 41.2824L71.6313 42.5249H72.8132V34.3276H71.5404ZM84.3989 34.1307C83.111 34.1307 82.3686 34.661 81.7322 35.6307C81.3685 34.6761 80.5503 34.1307 79.3078 34.1307C78.1563 34.1307 77.3835 34.6307 76.7926 35.6004L76.7168 34.3276H75.535V42.5249H76.8078V36.1762C77.2472 35.6762 77.9745 35.1761 78.8381 35.1761C80.2321 35.1761 80.6867 36.0247 80.6867 37.3732V42.5249H81.9595V36.9792C81.9595 36.6762 81.9292 36.4035 81.8837 36.1459C82.4443 35.5853 83.1413 35.1761 83.9141 35.1761C85.3384 35.1761 85.7929 36.0247 85.7929 37.3429V42.5249H87.0657V36.9641C87.0657 35.2065 86.1717 34.1307 84.3989 34.1307ZM96.0137 37.7823C96.0137 35.6459 94.9379 34.1307 92.7257 34.1307C90.2105 34.1307 89.1044 35.9944 89.1044 38.3732C89.1044 41.0552 90.4075 42.7219 93.15 42.7219C94.0136 42.7219 94.847 42.5098 95.5137 42.1461C95.6046 41.8431 95.6955 41.3279 95.7107 40.9642C94.9531 41.434 94.0743 41.6764 93.2257 41.6764C91.5893 41.6764 90.5893 40.8582 90.4378 38.8581H95.938C95.9834 38.646 96.0137 38.1156 96.0137 37.7823ZM92.6803 35.1761C94.0894 35.1761 94.7106 36.2671 94.7106 37.7672V37.8126H90.4378C90.5741 36.1762 91.3317 35.1761 92.6803 35.1761ZM101.613 34.1458C100.673 34.1458 99.9309 34.6761 99.4763 35.5549L99.4157 34.3276H98.2187V42.5249H99.4915V36.2216C99.9915 35.5853 100.749 35.2974 101.446 35.2974C101.764 35.2974 102.143 35.3277 102.446 35.4034C102.552 35.0701 102.583 34.6004 102.583 34.2822C102.31 34.1913 101.931 34.1458 101.613 34.1458Z" fill="#FF3E6C"/>
</svg>
