<svg width="24" height="24" viewBox="0 0 24 24" fill="none" xmlns="http://www.w3.org/2000/svg">
<path fillRule="evenodd" clipRule="evenodd" d="M21.9513 12.2847C20.125 8.45704 16.3358 6 12 6C7.66422 6 3.87498 8.45704 2.04873 12.2847C1.98376 12.4209 1.98376 12.5791 2.04873 12.7153C3.87498 16.543 7.66422 19 12 19C16.3358 19 20.125 16.543 21.9513 12.7153C22.0162 12.5791 22.0162 12.4209 21.9513 12.2847ZM3.05706 12.5C4.75664 9.13958 8.13648 7 12 7C15.8635 7 19.2434 9.13958 20.9429 12.5C19.2434 15.8604 15.8635 18 12 18C8.13648 18 4.75664 15.8604 3.05706 12.5ZM12 8.503C14.2091 8.503 16 10.2939 16 12.503C16 14.7121 14.2091 16.503 12 16.503C9.79086 16.503 8 14.7121 8 12.503C8 10.2939 9.79086 8.503 12 8.503ZM9 12.503C9 10.8461 10.3431 9.503 12 9.503C13.6569 9.503 15 10.8461 15 12.503C15 14.1599 13.6569 15.503 12 15.503C10.3431 15.503 9 14.1599 9 12.503Z" fill="#929292"/>
</svg>
