<svg width="198" height="29" viewBox="0 0 198 29" fill="none" xmlns="http://www.w3.org/2000/svg">
<path fillRule="evenodd" clipRule="evenodd" d="M2.12815 6.79221C0.880176 7.49695 0.108398 8.81911 0.108398 10.2523V21.9343C0.108398 23.0316 0.997946 23.9212 2.09525 23.9212L2.61737 23.9212L2.61737 21.5523L2.23718 17.4978C2.14865 16.5538 2.54377 15.629 3.28714 15.0405L4.00297 14.4737C4.23639 14.2889 4.43885 14.068 4.60273 13.8194L6.28196 11.2723C6.80022 10.4862 7.67879 10.0131 8.62036 10.0131H13.9482L19.4123 10.0131C20.3538 10.0131 21.2324 10.4862 21.7507 11.2723L23.4299 13.8194C23.5938 14.068 23.7963 14.2888 24.0297 14.4737L24.7455 15.0404C25.4889 15.629 25.884 16.5538 25.7954 17.4978L25.4152 21.5523V23.9211L25.9374 23.9211C27.0347 23.9211 27.9242 23.0315 27.9242 21.9342V10.2522C27.9242 8.81899 27.1524 7.49682 25.9044 6.79209L15.9702 1.18227C14.7576 0.497505 13.275 0.497511 12.0624 1.18229L2.12815 6.79221Z" fill="#EC0000"/>
<path fillRule="evenodd" clipRule="evenodd" d="M8.31051 17.6837C8.1482 17.4203 7.87242 17.2475 7.56459 17.2164L5.63692 17.0218C4.55841 16.9129 3.78813 18.0424 4.28332 19.0067C4.51747 19.4626 4.98698 19.7493 5.49955 19.7493H8.07522C8.4951 19.7493 8.86963 20.0133 9.01081 20.4087L9.35395 21.3699C9.4749 21.7087 9.79577 21.9348 10.1555 21.9348H14.0619H17.9683C18.328 21.9348 18.6488 21.7087 18.7698 21.3699L19.1129 20.4087C19.2541 20.0133 19.6286 19.7493 20.0485 19.7493H22.6162C23.1288 19.7493 23.5983 19.4626 23.8324 19.0067C24.3276 18.0424 23.5573 16.9129 22.4788 17.0218L20.5511 17.2164C20.2433 17.2475 19.9675 17.4203 19.8052 17.6837L19.1294 18.7803C18.9485 19.0738 18.6284 19.2526 18.2837 19.2526H9.83206C9.4873 19.2526 9.16719 19.0738 8.98633 18.7803L8.31051 17.6837Z" fill="#EC0000"/>
<path d="M38.2246 17.1925C38.2246 18.6945 38.7809 19.3621 40.0604 19.3621C40.6446 19.3621 41.3678 19.1952 41.9241 18.917C41.8407 19.8906 41.7294 20.8641 41.5347 21.7542C40.7837 22.1437 39.977 22.2549 39.1147 22.2549C36.2497 22.2549 34.6642 20.7529 34.6642 17.5541V4.20247C35.8324 3.86867 37.0285 3.7296 38.2246 3.7296V8.04105H42.0632C42.0076 8.98679 41.9241 9.82126 41.7572 10.8504H38.2246V17.1925ZM52.2951 8.04105H55.8555V21.3648C54.1031 21.8933 52.1003 22.2549 50.2089 22.2549C45.5636 22.2549 44.1172 20.2244 44.1172 17.2203V8.04105H47.6776V16.8308C47.6776 18.6667 48.4008 19.4455 50.2923 19.4455C50.9877 19.4455 51.6553 19.3621 52.2951 19.223V8.04105ZM70.7546 7.70726C72.7017 7.70726 74.3984 7.9576 75.9561 8.40265V21.9211H72.7017L72.4791 19.974C71.8116 21.4205 70.6989 22.2549 69.0022 22.2549C65.9146 22.2549 63.7171 20.1409 63.7171 15.0785C63.7171 10.6001 65.6364 7.70726 70.7546 7.70726ZM70.087 19.3899C71.1162 19.3899 71.8672 19.0283 72.4235 18.472V10.7392C71.9228 10.6279 71.3665 10.5723 70.6711 10.5723C68.0564 10.5723 67.3332 12.3247 67.3332 14.995C67.3332 18.166 68.3068 19.3899 70.087 19.3899ZM86.9562 8.04105H90.5166V21.3648C88.7642 21.8933 86.7615 22.2549 84.87 22.2549C80.2248 22.2549 78.7783 20.2244 78.7783 17.2203V8.04105H82.3388V16.8308C82.3388 18.6667 83.062 19.4455 84.9534 19.4455C85.6488 19.4455 86.3164 19.3621 86.9562 19.223V8.04105ZM96.8986 17.1925C96.8986 18.6945 97.4549 19.3621 98.7344 19.3621C99.3186 19.3621 100.042 19.1952 100.598 18.917C100.515 19.8906 100.403 20.8641 100.209 21.7542C99.4576 22.1437 98.651 22.2549 97.7887 22.2549C94.9237 22.2549 93.3382 20.7529 93.3382 17.5541V4.20247C94.5064 3.86867 95.7025 3.7296 96.8986 3.7296V8.04105H100.737C100.682 8.98679 100.598 9.82126 100.431 10.8504H96.8986V17.1925ZM108.336 22.2549C104.164 22.2549 101.744 19.529 101.744 14.995C101.744 10.4054 104.108 7.70726 108.336 7.70726C112.564 7.70726 114.956 10.4054 114.956 14.995C114.956 19.529 112.537 22.2549 108.336 22.2549ZM108.336 19.3899C110.367 19.3899 111.313 17.9435 111.313 14.995C111.313 12.0187 110.395 10.5723 108.336 10.5723C106.306 10.5723 105.388 12.0187 105.388 14.995C105.388 17.9435 106.334 19.3899 108.336 19.3899ZM129.376 8.4861H129.404L127.568 21.5874C126.984 25.6206 124.703 28.1519 120.225 28.1519C118.444 28.1519 116.942 27.7625 115.802 27.1505C115.885 26.2604 116.108 25.0921 116.358 24.2577C117.387 24.9531 118.778 25.2312 119.835 25.2312C122.784 25.2312 123.785 23.6457 124.063 21.4761L124.23 20.3356C123.423 21.5595 122.339 22.2549 120.781 22.2549C118.111 22.2549 116.275 20.5025 116.275 16.9699C116.275 11.4624 118.834 7.70726 124.119 7.70726C126.149 7.70726 127.902 8.01323 129.376 8.4861ZM124.508 18.3607L125.565 10.7114C125.12 10.6279 124.592 10.5723 123.952 10.5723C120.92 10.5723 119.835 13.4651 119.835 16.5249C119.835 18.4163 120.447 19.3899 122.033 19.3899C123.062 19.3899 123.868 18.9448 124.508 18.3607ZM142.329 16.2189H133.956V16.2745C133.956 18.6945 134.986 19.4455 137.267 19.4455C138.713 19.4455 140.298 19.0561 141.717 18.472C141.606 19.5012 141.328 20.586 140.994 21.4483C139.742 21.949 138.268 22.2549 136.738 22.2549C132.51 22.2549 130.563 20.0297 130.563 16.4136C130.563 11.518 132.955 7.70726 137.6 7.70726C141.189 7.70726 142.885 9.93252 142.885 12.8254C142.885 13.7989 142.579 15.3844 142.329 16.2189ZM137.406 10.4888C135.598 10.4888 134.652 11.8518 134.235 13.6598H139.408C139.464 13.2704 139.492 12.9088 139.492 12.6307C139.492 11.2955 138.824 10.4888 137.406 10.4888ZM147.824 22.2549C145.877 22.2549 144.347 21.8099 143.235 21.1701C143.402 20.2244 143.708 19.3065 144.069 18.5276C145.21 19.1674 146.406 19.5012 147.685 19.5012C149.16 19.5012 149.966 19.0005 149.966 17.9713C149.966 17.2759 149.577 16.8308 148.603 16.4692L147.491 16.0798C145.794 15.4679 144.486 14.4387 144.486 12.2134C144.486 9.26494 146.74 7.70726 150.133 7.70726C151.635 7.70726 153.137 7.98542 154.389 8.45829C154.222 9.32058 153.944 10.2663 153.638 11.1008C152.609 10.7114 151.552 10.461 150.272 10.461C148.687 10.461 148.019 10.9895 148.019 11.9074C148.019 12.5194 148.492 13.0201 149.549 13.3817L150.745 13.8267C152.664 14.5221 153.666 15.5791 153.666 17.5819C153.666 20.3635 151.385 22.2549 147.824 22.2549ZM160.202 10.8504L159.284 17.3872C159.09 18.7501 159.562 19.3343 160.592 19.3343C161.231 19.3343 162.094 19.1674 162.65 18.8892C162.483 19.974 162.205 21.0032 161.76 21.8933C161.037 22.1437 160.258 22.2549 159.368 22.2549C156.53 22.2549 155.334 20.5582 155.779 17.4984L157.643 4.20247C158.839 3.86867 160.007 3.7296 161.204 3.7296L160.592 8.04105H164.347C164.18 8.95897 164.013 9.73781 163.568 10.8504H160.202ZM168.908 5.73234C167.684 5.73234 166.822 4.87004 166.822 3.64615C166.822 2.42225 167.684 1.55996 168.908 1.55996C170.076 1.55996 170.939 2.42225 170.939 3.64615C170.939 4.84223 170.076 5.73234 168.908 5.73234ZM164.597 21.9211L166.544 8.04105H170.021L168.074 21.9211H164.597ZM180.604 8.04105H184.303L177.655 21.9211H174.234L171.508 8.04105H175.096L176.459 18.1938L180.604 8.04105ZM189.505 22.2549C185.861 22.2549 183.831 20.0853 183.831 16.4971C183.831 11.4624 186.417 7.70726 191.202 7.70726C194.874 7.70726 196.876 9.90471 196.876 13.4373C196.876 18.5276 194.178 22.2549 189.505 22.2549ZM189.672 19.3899C192.342 19.3899 193.371 16.3302 193.371 13.632C193.371 11.5737 192.593 10.5723 191.035 10.5723C188.337 10.5723 187.335 13.5764 187.335 16.2745C187.335 18.3885 188.142 19.3899 189.672 19.3899Z" fill="#EC0000"/>
</svg>
